<svg id="svg" version="1.1" xmlns="http://www.w3.org/2000/svg" xmlns:xlink="http://www.w3.org/1999/xlink" width="400" height="368.2170542635659" viewBox="0, 0, 400,368.2170542635659"><g id="svgg"><path id="path0" d="M55.146 14.030 C 50.976 14.685,51.760 13.725,36.384 37.017 C 13.680 71.408,15.531 68.431,15.220 71.058 C 14.694 75.499,16.432 77.775,24.241 82.874 L 30.162 86.740 31.341 89.871 C 35.615 101.223,37.542 103.264,54.742 114.663 C 59.224 117.634,63.630 120.688,64.533 121.450 C 65.435 122.212,78.426 133.352,93.400 146.204 C 123.355 171.915,123.154 171.749,125.783 172.979 C 131.982 175.882,139.595 170.722,139.595 163.618 C 139.595 158.880,137.945 156.153,128.832 145.827 C 125.332 141.860,120.730 136.639,118.607 134.225 C 116.484 131.810,114.298 129.346,113.750 128.749 C 112.435 127.316,112.561 127.213,115.919 126.979 C 118.725 126.783,121.934 125.835,123.226 124.819 C 127.990 121.077,129.711 116.666,128.564 111.139 C 128.323 109.982,128.131 108.922,128.136 108.784 C 128.141 108.646,129.338 108.230,130.795 107.860 C 138.822 105.822,142.888 99.347,140.903 91.764 C 140.566 90.476,140.348 89.363,140.419 89.293 C 140.549 89.163,142.036 89.846,159.300 97.966 C 177.802 106.668,179.241 107.197,184.715 107.300 C 192.702 107.451,196.554 100.174,192.667 92.277 C 190.795 88.476,192.888 89.772,153.407 67.948 C 148.748 65.372,143.858 62.646,142.541 61.889 C 141.225 61.133,138.987 59.885,137.569 59.117 C 136.151 58.348,132.919 56.557,130.387 55.137 C 127.855 53.717,124.871 52.063,123.757 51.463 C 118.506 48.633,118.600 48.711,118.600 47.169 C 118.600 45.630,117.006 43.462,115.874 43.462 C 115.426 43.462,115.285 43.084,115.285 41.872 C 115.285 36.801,112.180 33.077,102.947 27.074 C 94.127 21.340,83.912 19.667,73.637 22.275 C 72.856 22.473,71.813 21.937,67.744 19.245 C 59.447 13.756,58.744 13.465,55.146 14.030 M338.490 32.468 C 336.517 33.078,334.898 33.223,329.282 33.294 C 318.452 33.429,312.211 35.584,303.278 42.274 C 298.560 45.807,294.980 47.915,290.607 49.734 C 287.275 51.120,286.714 51.181,263.599 52.685 C 243.982 53.961,243.712 54.013,240.822 56.994 C 235.411 62.576,236.719 69.693,243.808 73.241 C 247.592 75.135,248.654 75.285,267.772 76.641 C 276.584 77.265,283.918 77.895,284.069 78.040 C 284.221 78.185,282.066 78.850,279.281 79.518 C 276.496 80.185,270.157 81.722,265.193 82.932 C 260.230 84.142,251.383 86.283,245.532 87.690 C 239.682 89.096,234.187 90.560,233.322 90.943 C 226.160 94.111,224.811 105.019,231.056 109.268 C 235.252 112.123,238.512 111.968,259.116 107.935 C 262.155 107.340,266.878 106.437,269.613 105.928 C 272.348 105.418,276.818 104.581,279.547 104.066 C 287.958 102.480,288.247 102.918,281.307 106.735 C 278.623 108.210,274.936 110.256,273.112 111.281 C 271.289 112.305,267.477 114.426,264.641 115.993 C 245.951 126.321,237.212 131.361,236.042 132.486 C 227.481 140.714,236.068 155.370,247.229 151.581 C 248.099 151.285,252.704 148.860,257.463 146.192 C 262.221 143.524,267.192 140.759,268.508 140.049 C 269.825 139.338,273.306 137.401,276.243 135.743 C 279.180 134.086,284.070 131.349,287.109 129.662 C 290.147 127.974,294.622 125.479,297.053 124.116 C 302.147 121.261,303.719 120.442,304.109 120.442 C 304.262 120.442,295.187 129.682,283.943 140.976 C 261.128 163.892,261.004 164.041,261.004 168.523 C 261.004 175.434,268.618 180.987,275.128 178.825 C 277.155 178.152,279.634 176.329,283.610 172.591 C 284.926 171.353,289.808 166.945,294.458 162.794 C 299.108 158.644,306.326 152.182,310.499 148.435 C 314.671 144.687,319.379 140.460,320.960 139.042 C 325.698 134.792,325.907 135.246,322.442 142.252 C 318.682 149.854,317.902 156.732,320.071 163.168 C 323.923 174.600,334.079 180.466,336.847 172.858 C 342.558 157.153,347.237 146.530,352.462 137.407 C 357.015 129.457,361.767 119.388,363.946 113.076 C 365.292 109.174,365.222 109.255,369.061 107.117 C 383.266 99.205,388.997 87.566,384.960 74.832 C 384.350 72.909,372.907 51.636,368.479 44.192 C 362.917 34.845,348.736 29.301,338.490 32.468 M193.370 188.800 C 187.929 191.153,186.614 194.559,183.594 214.116 C 182.275 222.660,180.624 233.131,179.924 237.385 C 179.225 241.639,178.226 247.850,177.704 251.186 C 177.183 254.523,176.701 257.308,176.633 257.375 C 176.522 257.487,175.749 253.448,173.828 242.726 C 173.447 240.599,172.376 234.300,171.448 228.729 C 167.197 203.214,166.636 200.599,164.538 196.493 C 161.485 190.515,155.275 189.410,150.022 193.909 C 146.392 197.019,145.590 201.275,146.933 210.316 C 152.551 248.136,155.487 266.805,157.119 275.075 C 157.812 278.586,158.379 281.602,158.379 281.776 C 158.379 281.951,157.426 282.828,156.262 283.726 C 152.521 286.610,152.017 287.262,152.239 288.922 C 152.420 290.268,152.296 290.529,150.582 292.404 C 142.195 301.580,144.962 320.949,156.272 332.237 L 157.942 333.904 158.069 341.261 L 158.195 348.619 159.334 350.645 C 160.181 352.150,160.981 352.978,162.449 353.867 L 164.424 355.064 194.459 355.056 C 228.331 355.047,226.165 355.229,228.783 352.171 C 230.696 349.936,230.939 348.663,230.939 340.897 L 230.939 333.998 232.910 331.179 C 239.031 322.423,239.928 318.680,239.943 301.842 C 239.953 291.408,239.785 289.235,238.237 279.698 L 237.452 274.867 238.479 271.595 C 241.728 261.246,234.398 251.445,224.590 253.024 C 221.901 253.457,222.136 253.629,221.477 250.752 C 219.374 241.577,208.501 237.162,200.753 242.337 C 199.850 242.940,199.049 243.371,198.972 243.294 C 198.801 243.123,202.739 221.291,205.021 209.761 C 206.336 203.118,206.662 200.756,206.530 198.817 C 206.024 191.370,199.287 186.241,193.370 188.800 " stroke="none" fill="#fac190" fill-rule="evenodd"></path><path id="path1" d="M0.000 184.162 L 0.000 368.324 200.000 368.324 L 400.000 368.324 400.000 184.162 L 400.000 0.000 200.000 0.000 L 0.000 0.000 0.000 184.162 M60.974 14.215 C 61.749 14.741,62.730 15.303,63.155 15.465 C 63.581 15.627,64.712 16.357,65.669 17.088 C 66.626 17.818,67.482 18.416,67.569 18.416 C 67.657 18.416,68.825 19.103,70.165 19.943 C 72.851 21.628,73.214 21.679,77.669 21.007 C 83.807 20.081,92.897 20.978,96.574 22.871 C 97.323 23.257,98.198 23.573,98.519 23.573 C 98.840 23.573,99.198 23.821,99.314 24.125 C 99.431 24.429,99.763 24.678,100.052 24.678 C 100.341 24.678,101.774 25.485,103.235 26.472 C 104.697 27.459,106.509 28.553,107.262 28.903 C 108.015 29.252,108.595 29.655,108.551 29.796 C 108.459 30.094,112.223 33.517,112.642 33.517 C 113.215 33.517,115.609 38.566,115.959 40.512 C 116.184 41.766,116.568 42.675,116.968 42.906 C 118.366 43.710,118.969 44.595,118.969 45.844 C 118.969 47.149,120.624 49.355,121.603 49.355 C 121.850 49.355,122.396 49.679,122.816 50.073 C 123.236 50.468,124.739 51.403,126.155 52.151 C 127.571 52.899,129.144 53.735,129.650 54.009 C 130.157 54.283,130.810 54.508,131.103 54.510 C 131.396 54.511,132.059 54.912,132.577 55.402 C 133.094 55.891,135.041 57.052,136.904 57.982 C 138.766 58.912,140.384 59.824,140.499 60.010 C 140.614 60.196,141.190 60.454,141.778 60.583 C 142.367 60.713,142.932 61.036,143.033 61.301 C 143.135 61.566,143.688 61.900,144.261 62.043 C 144.835 62.185,145.635 62.598,146.041 62.961 C 146.446 63.324,148.269 64.418,150.092 65.392 C 151.915 66.367,154.236 67.630,155.249 68.199 C 156.262 68.769,157.670 69.527,158.379 69.884 C 159.088 70.242,159.766 70.666,159.885 70.827 C 160.004 70.988,161.033 71.499,162.173 71.962 C 163.313 72.425,164.666 73.122,165.180 73.511 C 166.663 74.631,173.455 78.422,174.954 78.966 C 175.460 79.150,175.958 79.416,176.059 79.558 C 176.414 80.056,179.550 81.884,183.403 83.839 C 185.542 84.925,187.483 85.971,187.716 86.164 C 187.948 86.357,188.694 86.750,189.373 87.037 C 190.508 87.517,192.346 89.134,191.757 89.134 C 191.359 89.134,192.312 90.742,193.000 91.231 C 194.874 92.562,195.489 101.452,193.829 103.218 C 193.374 103.703,193.002 104.282,193.002 104.505 C 193.002 105.246,189.994 107.306,188.263 107.751 C 184.156 108.807,176.917 107.178,169.515 103.531 C 168.246 102.906,167.097 102.394,166.963 102.394 C 166.829 102.394,163.807 100.974,160.247 99.238 C 151.596 95.019,150.366 94.445,148.490 93.753 C 147.609 93.428,146.286 92.753,145.550 92.253 C 144.814 91.753,143.929 91.344,143.583 91.344 C 143.236 91.344,142.851 91.179,142.726 90.976 C 142.132 90.016,141.950 90.943,141.950 94.936 C 141.950 98.702,141.846 99.454,141.141 100.731 C 140.696 101.539,140.331 102.305,140.331 102.435 C 140.331 102.858,137.482 105.709,137.059 105.709 C 136.833 105.709,136.648 105.855,136.648 106.034 C 136.648 106.540,132.826 108.287,131.056 108.589 L 129.466 108.861 129.594 113.275 C 129.812 120.779,125.481 126.354,118.570 127.468 C 113.702 128.252,113.734 127.888,118.117 132.619 C 119.701 134.329,121.808 136.763,122.800 138.029 C 123.791 139.296,124.730 140.331,124.886 140.331 C 125.042 140.331,125.505 140.870,125.913 141.529 C 126.322 142.187,127.826 143.886,129.256 145.304 C 130.685 146.722,131.856 147.994,131.858 148.130 C 131.859 148.266,132.316 148.852,132.873 149.432 C 140.985 157.869,142.486 165.801,137.009 171.278 C 132.537 175.750,127.207 175.734,121.655 171.233 C 120.181 170.038,118.869 169.061,118.738 169.061 C 118.608 169.061,118.141 168.688,117.701 168.232 C 115.907 166.374,113.519 164.338,111.696 163.112 C 110.633 162.398,109.857 161.720,109.972 161.606 C 110.198 161.380,105.674 157.642,104.328 156.943 C 103.872 156.706,103.499 156.331,103.499 156.111 C 103.499 155.667,101.611 153.942,97.974 151.064 C 96.657 150.022,95.121 148.755,94.561 148.250 C 94.000 147.744,93.379 147.330,93.180 147.330 C 92.981 147.330,92.818 147.100,92.818 146.820 C 92.818 146.539,92.445 146.062,91.989 145.760 C 91.533 145.457,90.662 144.734,90.053 144.152 C 89.444 143.570,88.201 142.518,87.290 141.814 C 86.380 141.111,85.552 140.431,85.451 140.305 C 85.350 140.178,83.361 138.455,81.031 136.476 C 78.702 134.496,76.172 132.327,75.411 131.655 C 74.649 130.984,73.696 130.329,73.293 130.201 C 72.890 130.073,72.560 129.845,72.560 129.695 C 72.560 129.111,70.172 126.963,68.106 125.690 C 67.379 125.241,66.384 124.407,65.896 123.836 C 65.408 123.265,64.015 122.015,62.799 121.057 C 61.584 120.099,60.202 118.989,59.729 118.590 C 59.256 118.190,58.711 117.864,58.517 117.864 C 58.323 117.864,57.964 117.700,57.719 117.499 C 56.524 116.519,51.701 113.449,51.353 113.446 C 51.135 113.445,50.568 113.029,50.092 112.523 C 49.616 112.017,49.021 111.602,48.769 111.602 C 48.518 111.602,48.257 111.461,48.189 111.289 C 48.062 110.964,45.974 109.514,43.332 107.916 C 40.352 106.112,35.575 100.964,34.277 98.156 C 33.622 96.739,32.860 95.154,32.583 94.633 C 32.306 94.112,31.803 92.869,31.464 91.870 C 31.125 90.872,30.537 89.660,30.157 89.177 C 29.777 88.694,29.466 88.013,29.466 87.665 C 29.466 87.105,24.448 83.610,23.644 83.610 C 23.492 83.610,23.128 83.278,22.836 82.873 C 22.544 82.468,22.183 82.136,22.034 82.136 C 20.996 82.136,17.049 78.717,15.870 76.796 C 14.103 73.918,14.376 68.229,16.390 65.930 C 16.824 65.435,18.770 62.609,21.971 57.827 C 22.581 56.915,23.294 55.631,23.555 54.972 C 23.817 54.314,24.163 53.775,24.326 53.775 C 24.611 53.775,27.993 49.149,27.993 48.760 C 27.993 48.654,28.490 47.845,29.098 46.961 C 29.705 46.078,30.203 45.207,30.203 45.025 C 30.203 44.844,30.617 44.306,31.123 43.831 C 31.630 43.355,32.044 42.829,32.044 42.662 C 32.044 42.340,34.208 39.183,35.618 37.449 C 36.083 36.876,36.465 36.130,36.467 35.791 C 36.469 35.452,37.545 33.724,38.859 31.951 C 40.173 30.177,41.762 27.816,42.390 26.702 C 43.018 25.589,43.682 24.678,43.866 24.678 C 44.049 24.678,44.203 24.471,44.207 24.217 C 44.212 23.964,44.550 23.343,44.959 22.836 C 45.988 21.562,48.248 18.092,48.262 17.764 C 48.281 17.324,50.026 15.470,50.422 15.470 C 50.623 15.470,51.026 15.129,51.317 14.713 C 52.537 12.971,58.675 12.655,60.974 14.215 M353.039 31.817 C 354.744 32.412,356.140 33.081,360.647 35.463 C 362.097 36.229,364.587 38.352,367.588 41.381 C 367.959 41.755,368.371 42.493,368.503 43.020 C 368.635 43.546,369.156 44.359,369.659 44.826 C 370.163 45.293,370.493 45.809,370.392 45.973 C 370.290 46.137,370.613 46.742,371.108 47.318 C 371.602 47.894,372.007 48.648,372.007 48.995 C 372.007 49.341,372.311 50.020,372.683 50.503 C 373.055 50.986,373.842 52.293,374.432 53.407 C 375.023 54.521,375.700 55.638,375.936 55.889 C 376.173 56.141,376.477 56.845,376.611 57.455 C 376.745 58.065,376.999 58.564,377.176 58.564 C 377.353 58.564,377.828 59.309,378.231 60.221 C 378.634 61.133,379.139 61.878,379.353 61.878 C 379.567 61.878,379.742 62.150,379.742 62.482 C 379.742 62.814,380.205 63.850,380.770 64.784 C 381.335 65.718,382.282 67.518,382.875 68.785 C 383.468 70.051,384.083 71.087,384.242 71.087 C 384.400 71.087,384.530 71.351,384.530 71.674 C 384.530 71.998,384.771 72.702,385.065 73.240 C 386.974 76.726,387.074 87.434,385.232 91.045 C 384.846 91.801,384.530 92.746,384.530 93.145 C 384.530 93.544,384.252 94.149,383.911 94.489 C 383.155 95.245,380.847 99.034,380.847 99.518 C 380.847 100.007,379.883 100.921,379.367 100.921 C 379.132 100.921,378.333 101.491,377.592 102.189 C 376.033 103.654,371.653 106.643,370.552 106.992 C 369.948 107.184,367.032 109.261,365.632 110.498 C 365.469 110.643,365.081 111.737,364.770 112.931 C 364.459 114.125,364.065 115.271,363.894 115.479 C 363.723 115.686,363.311 116.681,362.978 117.689 C 362.644 118.697,362.073 120.184,361.709 120.994 C 361.345 121.805,360.944 122.716,360.820 123.020 C 360.695 123.324,359.355 125.893,357.842 128.729 C 356.329 131.565,354.662 134.715,354.137 135.727 C 353.612 136.740,352.777 138.232,352.281 139.042 C 351.254 140.722,348.803 145.732,348.803 146.151 C 348.803 146.304,348.471 146.713,348.066 147.060 C 347.661 147.407,347.330 148.015,347.330 148.411 C 347.330 148.807,346.776 150.259,346.098 151.637 C 345.089 153.691,343.715 157.002,342.383 160.589 C 342.270 160.893,342.021 161.390,341.830 161.694 C 341.072 162.896,339.673 166.396,339.254 168.140 C 339.010 169.153,338.586 170.328,338.312 170.752 C 338.038 171.175,337.622 172.230,337.389 173.096 C 336.152 177.691,329.332 177.889,325.351 173.446 C 324.576 172.581,323.415 171.292,322.771 170.583 C 321.072 168.710,319.057 162.827,318.403 157.827 L 317.872 153.775 318.932 149.908 C 320.307 144.891,321.132 142.769,322.578 140.536 C 325.544 135.952,321.520 138.772,312.878 147.334 C 311.858 148.344,310.922 149.171,310.797 149.171 C 310.673 149.171,310.005 149.710,309.314 150.368 C 308.623 151.027,306.668 152.808,304.970 154.328 C 303.271 155.847,301.127 157.781,300.204 158.624 C 299.282 159.468,297.718 160.877,296.729 161.755 C 295.740 162.633,294.384 163.890,293.715 164.549 C 293.046 165.207,292.343 165.746,292.153 165.746 C 291.962 165.746,291.122 166.488,290.286 167.395 C 289.450 168.302,288.765 168.924,288.764 168.776 C 288.763 168.629,288.225 169.051,287.567 169.713 C 278.134 179.223,275.099 180.753,268.477 179.333 C 264.369 178.452,260.395 173.161,260.411 168.595 C 260.418 166.447,262.331 161.290,263.266 160.900 C 263.431 160.830,263.947 160.152,264.410 159.392 C 264.874 158.633,265.389 158.011,265.555 158.011 C 265.864 158.011,266.570 157.330,270.690 153.056 C 271.991 151.706,273.359 150.440,273.729 150.242 C 274.099 150.044,274.401 149.612,274.401 149.281 C 274.401 148.951,274.502 148.781,274.625 148.903 C 274.747 149.026,275.515 148.355,276.331 147.412 C 277.148 146.469,278.335 145.277,278.969 144.764 C 279.604 144.251,280.949 142.929,281.958 141.827 C 282.968 140.725,284.254 139.399,284.817 138.881 C 287.438 136.464,298.897 125.015,298.940 124.770 C 298.966 124.618,299.008 124.318,299.033 124.103 C 299.058 123.889,299.233 123.809,299.422 123.925 C 299.611 124.042,299.869 123.969,299.996 123.763 C 300.482 122.977,297.184 124.315,296.501 125.181 C 296.400 125.309,295.571 125.811,294.659 126.297 C 287.145 130.298,281.055 133.733,280.828 134.101 C 280.713 134.286,280.365 134.438,280.054 134.438 C 279.742 134.438,278.965 134.811,278.326 135.267 C 277.687 135.723,275.458 136.960,273.372 138.016 C 271.287 139.071,269.156 140.269,268.637 140.678 C 268.118 141.086,266.841 141.852,265.799 142.379 C 264.757 142.907,263.076 143.814,262.063 144.394 C 261.050 144.975,259.558 145.785,258.748 146.195 C 257.937 146.605,256.529 147.378,255.617 147.913 C 254.705 148.449,252.877 149.517,251.554 150.287 C 240.882 156.501,230.661 150.173,232.203 138.306 C 232.484 136.142,233.764 133.328,234.967 132.228 C 235.961 131.320,237.884 130.018,238.234 130.018 C 238.413 130.018,238.860 129.687,239.227 129.282 C 239.593 128.877,240.158 128.540,240.481 128.533 C 240.804 128.526,242.311 127.784,243.831 126.884 C 245.350 125.983,247.316 124.909,248.201 124.497 C 249.085 124.084,250.266 123.421,250.824 123.023 C 251.383 122.625,253.146 121.614,254.742 120.775 C 256.337 119.936,257.891 119.044,258.195 118.793 C 258.499 118.542,260.405 117.470,262.431 116.410 C 264.457 115.351,266.300 114.331,266.527 114.143 C 266.754 113.955,267.997 113.279,269.289 112.642 C 272.037 111.286,280.026 106.757,280.295 106.403 C 280.396 106.269,281.100 105.901,281.860 105.585 C 286.130 103.807,280.786 104.074,273.112 106.023 C 272.302 106.228,269.236 106.756,266.298 107.196 C 263.361 107.636,259.880 108.301,258.564 108.674 C 257.247 109.047,255.424 109.430,254.512 109.526 C 253.600 109.622,251.943 109.870,250.829 110.079 C 249.715 110.287,246.897 110.814,244.567 111.249 C 238.735 112.339,234.486 112.085,231.928 110.495 C 230.952 109.888,230.059 109.392,229.942 109.392 C 229.685 109.392,229.020 108.572,227.703 106.630 C 226.198 104.411,226.215 97.737,227.731 95.447 C 228.280 94.617,228.729 93.778,228.729 93.581 C 228.729 93.384,229.351 92.759,230.110 92.192 C 230.870 91.624,231.547 91.036,231.614 90.884 C 231.682 90.732,232.020 90.608,232.365 90.608 C 232.711 90.608,233.644 90.276,234.438 89.871 C 235.233 89.466,236.221 89.132,236.634 89.129 C 237.047 89.126,238.048 88.884,238.858 88.593 C 239.669 88.301,241.003 88.055,241.823 88.046 C 242.644 88.037,243.477 87.867,243.676 87.669 C 244.002 87.343,247.700 86.406,254.628 84.894 C 256.009 84.593,257.418 84.200,257.759 84.021 C 258.100 83.842,259.125 83.579,260.037 83.437 C 260.948 83.296,262.274 83.039,262.983 82.867 C 263.692 82.696,265.267 82.358,266.483 82.116 C 267.698 81.874,269.019 81.449,269.419 81.170 C 269.819 80.891,270.654 80.663,271.275 80.663 C 271.897 80.663,273.393 80.394,274.600 80.066 C 275.808 79.737,277.706 79.275,278.819 79.038 C 282.215 78.316,278.576 77.792,265.624 77.136 C 263.936 77.051,261.119 76.816,259.362 76.615 C 257.606 76.414,254.926 76.242,253.407 76.233 C 250.071 76.214,246.629 75.519,244.583 74.453 C 243.752 74.019,242.817 73.665,242.505 73.665 C 240.302 73.665,236.791 67.709,237.077 64.457 C 237.373 61.098,237.713 59.644,238.417 58.729 C 240.101 56.542,242.267 54.549,243.218 54.310 C 243.762 54.174,244.291 53.924,244.395 53.756 C 244.629 53.377,246.607 53.125,251.381 52.866 C 258.540 52.479,262.087 52.260,264.273 52.073 C 265.488 51.969,270.958 51.578,276.427 51.204 C 285.952 50.552,289.444 49.976,290.077 48.953 C 290.190 48.769,290.614 48.619,291.019 48.619 C 292.758 48.619,301.459 43.563,301.852 42.324 C 301.967 41.962,302.620 41.482,303.303 41.256 C 303.986 41.031,304.748 40.602,304.996 40.303 C 305.624 39.547,308.330 37.754,310.013 36.980 C 310.786 36.624,311.832 36.051,312.339 35.707 C 313.309 35.047,317.762 33.740,321.179 33.114 C 322.293 32.910,326.196 32.677,329.852 32.597 C 333.827 32.510,336.936 32.273,337.586 32.009 C 340.592 30.788,349.765 30.674,353.039 31.817 M199.400 187.877 C 202.173 188.647,204.517 190.927,206.373 194.659 C 207.323 196.571,207.346 202.820,206.414 206.321 C 205.525 209.659,205.232 211.069,204.433 215.838 C 203.671 220.390,202.357 227.550,201.088 234.070 C 199.642 241.497,199.676 242.400,201.338 240.838 C 204.380 237.980,216.588 239.677,218.485 243.222 C 218.714 243.650,219.123 244.222,219.395 244.494 C 220.420 245.519,221.831 248.345,222.243 250.197 L 222.669 252.118 224.686 252.045 C 235.914 251.638,242.766 261.021,239.255 271.995 C 238.122 275.537,238.129 275.943,239.432 283.057 C 241.662 295.228,240.682 319.009,237.723 324.550 C 237.436 325.088,237.201 325.787,237.201 326.103 C 237.201 326.419,236.869 326.855,236.464 327.072 C 236.059 327.289,235.727 327.792,235.727 328.190 C 235.727 328.588,235.601 328.913,235.446 328.913 C 235.292 328.913,235.002 329.216,234.802 329.586 C 234.602 329.956,233.734 331.308,232.873 332.590 L 231.308 334.921 231.308 342.254 C 231.308 349.529,231.174 350.462,229.960 351.676 C 229.688 351.948,229.466 352.390,229.466 352.658 C 229.466 352.927,228.600 353.702,227.541 354.381 L 225.616 355.617 196.141 355.742 C 164.949 355.875,162.089 355.754,161.292 354.265 C 161.094 353.894,160.730 353.590,160.484 353.588 C 160.238 353.586,159.493 352.550,158.829 351.286 L 157.622 348.987 157.632 341.772 L 157.643 334.557 156.446 333.436 C 155.787 332.819,154.779 331.757,154.205 331.074 C 153.632 330.392,152.671 329.257,152.071 328.552 C 151.471 327.847,150.531 326.322,149.983 325.164 C 149.435 324.005,148.803 323.049,148.577 323.039 C 148.352 323.029,147.628 321.404,146.969 319.429 C 144.598 312.322,145.166 297.668,147.929 294.689 C 148.410 294.170,148.803 293.564,148.803 293.341 C 148.803 293.118,149.383 292.408,150.092 291.763 C 151.443 290.534,151.495 290.404,151.392 288.514 C 151.289 286.608,152.837 284.514,155.552 282.887 C 157.642 281.634,157.762 280.944,156.711 276.193 C 156.210 273.931,155.799 271.649,155.797 271.123 C 155.794 270.596,155.530 269.254,155.209 268.140 C 154.888 267.026,154.555 265.617,154.468 265.009 C 154.382 264.401,153.891 261.087,153.379 257.643 C 152.867 254.199,152.302 250.304,152.125 248.987 C 151.947 247.670,151.535 244.936,151.208 242.910 C 150.882 240.884,150.300 236.888,149.915 234.031 C 149.530 231.173,148.957 227.361,148.642 225.559 C 146.662 214.247,145.407 204.127,145.686 201.727 C 147.006 190.347,159.118 186.258,164.847 195.257 C 165.874 196.872,167.414 201.405,167.709 203.683 C 167.827 204.595,168.266 207.164,168.686 209.392 C 169.106 211.621,169.616 214.604,169.819 216.022 C 170.023 217.440,170.347 218.932,170.540 219.337 C 170.732 219.742,171.047 221.317,171.240 222.836 C 172.209 230.470,172.428 231.946,172.743 232.965 C 173.097 234.110,173.904 238.641,174.777 244.383 C 175.301 247.831,176.259 252.257,176.543 252.541 C 176.769 252.767,177.138 251.202,177.727 247.514 C 178.002 245.792,178.658 241.731,179.184 238.490 C 179.711 235.249,180.377 230.856,180.665 228.729 C 180.952 226.602,181.367 223.867,181.587 222.652 C 181.806 221.436,182.136 219.613,182.319 218.600 C 182.502 217.587,182.914 215.018,183.235 212.891 C 183.556 210.764,183.968 208.112,184.152 206.998 C 184.471 205.069,185.326 198.962,185.442 197.790 C 185.472 197.486,185.693 196.876,185.934 196.433 C 186.175 195.991,186.372 195.433,186.372 195.193 C 186.372 194.691,188.687 191.457,189.951 190.193 C 192.254 187.890,196.074 186.954,199.400 187.877 " stroke="none" fill="#74847b" fill-rule="evenodd"></path><path id="path2" d="M53.223 14.167 C 51.800 14.819,52.462 14.828,54.144 14.180 C 54.853 13.907,55.184 13.679,54.880 13.673 C 54.576 13.666,53.831 13.889,53.223 14.167 M49.724 16.390 C 49.248 16.897,49.012 17.306,49.199 17.300 C 49.514 17.289,51.032 15.470,50.726 15.470 C 50.651 15.470,50.200 15.884,49.724 16.390 M64.273 16.839 C 64.644 17.214,69.692 20.604,70.718 21.168 C 71.998 21.870,70.377 20.623,67.772 18.900 C 64.600 16.803,63.729 16.290,64.273 16.839 M85.912 21.258 C 86.469 21.343,87.380 21.343,87.937 21.258 C 88.494 21.174,88.039 21.105,86.924 21.105 C 85.810 21.105,85.355 21.174,85.912 21.258 M96.532 23.344 C 96.907 23.687,100.552 25.408,100.552 25.243 C 100.552 25.035,97.035 23.204,96.636 23.204 C 96.494 23.204,96.447 23.267,96.532 23.344 M42.291 27.532 C 40.009 30.974,39.208 32.293,39.661 31.860 C 40.357 31.195,44.354 25.046,44.091 25.046 C 44.007 25.046,43.197 26.165,42.291 27.532 M352.860 32.513 C 353.170 32.869,358.010 34.550,357.814 34.234 C 357.715 34.073,356.766 33.657,355.705 33.308 C 354.644 32.959,353.527 32.588,353.223 32.484 C 352.919 32.380,352.756 32.393,352.860 32.513 M112.044 34.162 C 112.774 34.922,113.719 36.123,114.143 36.832 C 114.567 37.541,114.915 37.939,114.916 37.716 C 114.917 37.209,112.833 34.289,111.853 33.425 C 110.558 32.284,110.676 32.739,112.044 34.162 M321.731 33.350 L 319.521 33.838 321.547 33.640 C 322.661 33.531,323.730 33.294,323.923 33.112 C 324.115 32.930,324.198 32.799,324.107 32.821 C 324.016 32.843,322.947 33.081,321.731 33.350 M328.323 33.223 C 328.861 33.525,335.418 33.397,335.737 33.078 C 335.856 32.959,334.133 32.885,331.908 32.913 C 329.684 32.942,328.070 33.081,328.323 33.223 M313.260 35.904 C 312.247 36.381,311.584 36.775,311.786 36.779 C 311.989 36.784,312.983 36.397,313.996 35.920 C 315.009 35.443,315.672 35.048,315.470 35.044 C 315.267 35.040,314.273 35.426,313.260 35.904 M359.669 35.552 C 360.787 36.460,361.837 36.992,361.531 36.498 C 361.393 36.274,360.751 35.835,360.106 35.523 C 359.016 34.996,358.985 34.998,359.669 35.552 M364.306 39.061 C 365.641 40.368,367.101 41.934,367.549 42.541 C 367.998 43.149,368.204 43.315,368.006 42.910 C 367.431 41.727,365.124 39.193,363.437 37.889 C 362.361 37.058,362.630 37.421,364.306 39.061 M115.106 39.365 C 115.205 40.048,115.285 41.250,115.285 42.035 C 115.285 43.097,115.436 43.462,115.874 43.462 C 116.198 43.462,116.944 43.977,117.532 44.606 C 118.624 45.776,118.876 45.771,118.246 44.594 C 118.051 44.229,117.388 43.723,116.773 43.468 C 115.793 43.062,115.649 42.815,115.617 41.484 C 115.597 40.647,115.433 39.549,115.254 39.042 C 114.975 38.255,114.953 38.302,115.106 39.365 M302.947 42.213 L 301.473 43.532 303.131 42.321 C 304.042 41.655,304.857 41.059,304.942 40.997 C 305.026 40.935,304.943 40.886,304.758 40.889 C 304.572 40.892,303.757 41.488,302.947 42.213 M300.000 44.415 L 298.895 45.365 300.092 44.573 C 300.750 44.137,301.289 43.709,301.289 43.621 C 301.289 43.346,301.133 43.442,300.000 44.415 M293.936 47.734 C 291.411 49.031,289.506 50.092,289.703 50.092 C 290.201 50.092,297.258 46.589,298.158 45.895 C 299.305 45.011,298.849 45.210,293.936 47.734 M118.643 47.967 C 118.603 48.566,121.933 50.829,122.836 50.817 C 123.039 50.814,122.256 50.281,121.098 49.633 C 119.939 48.985,118.922 48.202,118.838 47.892 C 118.718 47.449,118.677 47.465,118.643 47.967 M372.377 50.926 C 372.375 51.292,374.606 55.249,374.814 55.249 C 374.902 55.249,374.705 54.731,374.378 54.099 C 373.468 52.339,372.379 50.612,372.377 50.926 M280.944 51.458 C 281.402 51.546,282.065 51.542,282.417 51.450 C 282.769 51.358,282.394 51.286,281.584 51.290 C 280.773 51.294,280.485 51.369,280.944 51.458 M125.230 52.079 C 125.230 52.315,132.426 56.355,132.836 56.349 C 133.008 56.347,132.486 55.968,131.676 55.507 C 127.288 53.011,125.230 51.917,125.230 52.079 M269.525 52.194 C 269.984 52.282,270.647 52.279,270.999 52.187 C 271.351 52.095,270.976 52.022,270.166 52.027 C 269.355 52.031,269.067 52.106,269.525 52.194 M24.762 53.986 C 24.307 54.680,24.007 55.249,24.097 55.249 C 24.353 55.249,25.879 53.012,25.726 52.860 C 25.651 52.785,25.217 53.291,24.762 53.986 M257.556 52.935 C 258.116 53.019,258.944 53.017,259.397 52.930 C 259.850 52.842,259.392 52.773,258.379 52.776 C 257.366 52.778,256.996 52.850,257.556 52.935 M247.053 53.667 C 247.509 53.755,248.255 53.755,248.711 53.667 C 249.167 53.579,248.794 53.507,247.882 53.507 C 246.971 53.507,246.598 53.579,247.053 53.667 M242.818 54.876 C 242.159 55.278,241.621 55.686,241.621 55.783 C 241.621 55.881,242.201 55.618,242.910 55.200 C 243.619 54.781,244.199 54.373,244.199 54.291 C 244.199 54.056,244.082 54.105,242.818 54.876 M240.362 56.814 C 238.636 58.900,238.521 59.093,239.539 58.195 C 240.455 57.388,241.485 55.985,241.163 55.985 C 241.100 55.985,240.739 56.358,240.362 56.814 M133.702 56.903 C 133.702 57.155,135.957 58.273,136.125 58.104 C 136.205 58.024,135.693 57.683,134.986 57.346 C 134.280 57.009,133.702 56.810,133.702 56.903 M20.942 59.945 C 20.107 60.952,17.652 64.825,17.849 64.825 C 17.946 64.825,18.864 63.582,19.890 62.063 C 21.662 59.436,22.107 58.541,20.942 59.945 M143.439 62.209 C 143.582 62.440,144.557 63.058,145.606 63.582 C 147.885 64.722,147.504 64.256,144.978 62.816 C 143.989 62.251,143.297 61.979,143.439 62.209 M379.558 64.088 C 380.071 65.101,380.574 65.930,380.675 65.930 C 380.777 65.930,380.440 65.101,379.926 64.088 C 379.413 63.076,378.910 62.247,378.809 62.247 C 378.708 62.247,379.045 63.076,379.558 64.088 M147.698 64.588 C 147.698 64.835,152.514 67.498,152.674 67.339 C 152.746 67.266,151.656 66.578,150.252 65.810 C 148.847 65.042,147.698 64.492,147.698 64.588 M153.867 68.004 C 154.814 68.791,160.589 71.964,160.589 71.697 C 160.589 71.601,159.305 70.818,157.735 69.959 C 156.165 69.099,154.466 68.153,153.959 67.856 L 153.039 67.316 153.867 68.004 M238.307 68.783 C 238.305 69.498,240.884 72.179,242.145 72.773 C 242.768 73.067,242.966 73.097,242.584 72.841 C 240.967 71.756,239.631 70.493,238.992 69.445 C 238.616 68.828,238.308 68.531,238.307 68.783 M251.294 75.771 C 251.854 75.855,252.683 75.853,253.136 75.766 C 253.589 75.678,253.131 75.609,252.118 75.612 C 251.105 75.615,250.734 75.686,251.294 75.771 M255.900 76.142 C 256.562 76.224,257.556 76.222,258.110 76.138 C 258.663 76.054,258.122 75.987,256.906 75.989 C 255.691 75.991,255.238 76.060,255.900 76.142 M262.615 76.623 C 264.134 76.766,266.372 76.878,267.587 76.872 L 269.797 76.861 267.035 76.600 C 265.516 76.457,263.278 76.345,262.063 76.351 L 259.853 76.362 262.615 76.623 M274.217 77.354 C 275.691 77.674,278.712 77.837,278.422 77.580 C 278.338 77.505,277.026 77.352,275.506 77.239 C 273.459 77.086,273.125 77.116,274.217 77.354 M17.680 78.637 C 18.367 79.346,19.012 79.926,19.113 79.926 C 19.214 79.926,18.735 79.346,18.048 78.637 C 17.361 77.928,16.716 77.348,16.614 77.348 C 16.513 77.348,16.992 77.928,17.680 78.637 M170.565 77.487 C 170.941 77.828,173.849 79.186,173.849 79.020 C 173.849 78.811,171.069 77.348,170.672 77.348 C 170.528 77.348,170.480 77.411,170.565 77.487 M281.430 77.852 C 281.860 78.230,284.399 78.467,284.177 78.108 C 284.043 77.893,283.336 77.716,282.606 77.716 C 281.875 77.716,281.346 77.777,281.430 77.852 M174.217 79.355 C 174.217 79.456,174.715 79.796,175.322 80.110 C 175.930 80.425,176.427 80.599,176.427 80.498 C 176.427 80.396,175.930 80.056,175.322 79.742 C 174.715 79.428,174.217 79.254,174.217 79.355 M277.901 79.558 C 276.962 79.961,277.930 79.961,279.190 79.558 C 279.930 79.321,279.966 79.261,279.374 79.252 C 278.969 79.246,278.306 79.384,277.901 79.558 M386.130 82.320 C 386.131 83.941,386.196 84.558,386.274 83.692 C 386.352 82.826,386.351 81.500,386.271 80.745 C 386.192 79.991,386.129 80.700,386.130 82.320 M23.729 82.828 C 23.839 83.006,25.019 83.835,26.351 84.670 C 27.683 85.505,28.683 86.043,28.573 85.865 C 28.463 85.687,27.283 84.858,25.951 84.022 C 24.619 83.187,23.619 82.649,23.729 82.828 M180.847 83.038 C 180.847 83.139,181.344 83.479,181.952 83.794 C 182.560 84.108,183.057 84.282,183.057 84.181 C 183.057 84.080,182.560 83.740,181.952 83.425 C 181.344 83.111,180.847 82.937,180.847 83.038 M254.880 85.083 C 254.122 85.326,254.089 85.383,254.696 85.409 C 255.101 85.426,255.681 85.279,255.985 85.083 C 256.631 84.666,256.183 84.666,254.880 85.083 M184.899 85.209 C 184.899 85.482,188.254 87.375,188.429 87.201 C 188.515 87.114,187.756 86.592,186.742 86.040 C 185.728 85.488,184.899 85.114,184.899 85.209 M251.197 86.004 C 250.285 86.268,249.871 86.487,250.276 86.492 C 250.681 86.496,251.676 86.281,252.486 86.014 C 254.394 85.385,253.360 85.377,251.197 86.004 M140.331 89.629 C 140.331 89.864,140.730 90.055,141.217 90.055 C 142.240 90.055,142.159 89.681,141.074 89.398 C 140.646 89.286,140.331 89.384,140.331 89.629 M231.455 91.649 C 230.097 92.633,227.993 95.039,227.993 95.609 C 227.993 95.752,228.580 95.101,229.299 94.160 C 230.017 93.219,230.721 92.443,230.864 92.436 C 231.189 92.419,233.414 90.612,233.112 90.610 C 232.991 90.609,232.245 91.076,231.455 91.649 M140.925 91.897 C 141.228 93.251,141.438 93.545,141.431 92.603 C 141.428 92.215,141.257 91.648,141.051 91.344 C 140.778 90.941,140.744 91.090,140.925 91.897 M145.488 91.836 C 145.488 91.931,146.023 92.195,146.677 92.423 C 147.330 92.651,147.703 92.686,147.505 92.501 C 147.086 92.108,145.488 91.582,145.488 91.836 M141.547 95.396 C 141.547 96.510,141.616 96.966,141.700 96.409 C 141.785 95.852,141.785 94.940,141.700 94.383 C 141.616 93.826,141.547 94.282,141.547 95.396 M381.387 97.145 C 380.826 97.905,379.771 99.169,379.042 99.954 C 378.313 100.739,377.909 101.319,378.145 101.243 C 378.544 101.114,382.689 96.257,382.689 95.918 C 382.689 95.531,382.331 95.868,381.387 97.145 M194.221 98.158 C 194.223 99.374,194.292 99.827,194.374 99.165 C 194.456 98.503,194.454 97.508,194.370 96.955 C 194.286 96.401,194.219 96.943,194.221 98.158 M227.275 97.191 C 227.029 97.786,226.901 98.661,226.991 99.136 C 227.137 99.903,227.161 99.883,227.206 98.963 C 227.233 98.392,227.435 97.591,227.654 97.182 C 227.873 96.773,227.978 96.364,227.888 96.273 C 227.797 96.183,227.522 96.596,227.275 97.191 M157.090 97.184 C 157.293 97.379,158.122 97.810,158.932 98.143 C 159.742 98.477,160.239 98.590,160.037 98.396 C 159.834 98.202,159.006 97.770,158.195 97.437 C 157.385 97.103,156.888 96.990,157.090 97.184 M35.727 99.816 C 36.160 100.424,36.597 100.921,36.698 100.921 C 36.800 100.921,36.529 100.424,36.096 99.816 C 35.663 99.208,35.226 98.711,35.125 98.711 C 35.024 98.711,35.295 99.208,35.727 99.816 M140.163 100.886 C 138.682 104.170,135.243 106.731,130.795 107.860 C 129.338 108.230,128.141 108.646,128.136 108.784 C 128.131 108.922,128.323 109.982,128.564 111.139 C 129.122 113.829,128.846 117.261,127.900 119.399 C 126.955 121.536,122.944 125.599,121.779 125.599 C 121.584 125.599,121.528 125.703,121.656 125.830 C 122.095 126.269,125.420 123.793,126.762 122.027 C 129.144 118.894,129.891 114.220,128.728 109.726 C 128.491 108.810,128.569 108.753,130.611 108.342 C 133.452 107.772,135.519 106.727,137.717 104.751 C 139.353 103.280,141.413 100.038,140.984 99.609 C 140.891 99.516,140.522 100.091,140.163 100.886 M285.820 103.492 C 285.820 103.690,285.140 104.199,284.311 104.622 C 283.481 105.046,282.874 105.464,282.962 105.553 C 283.253 105.844,286.182 104.061,286.185 103.591 C 286.186 103.338,286.105 103.131,286.004 103.131 C 285.902 103.131,285.820 103.293,285.820 103.492 M226.917 103.790 C 226.884 104.320,228.271 107.182,228.560 107.182 C 228.661 107.182,228.432 106.561,228.051 105.801 C 227.670 105.041,227.265 104.171,227.152 103.867 C 227.016 103.503,226.936 103.476,226.917 103.790 M173.112 104.788 C 173.619 105.078,174.199 105.315,174.401 105.315 C 174.604 105.315,174.355 105.078,173.849 104.788 C 173.343 104.499,172.762 104.262,172.560 104.262 C 172.357 104.262,172.606 104.499,173.112 104.788 M371.919 105.471 C 369.201 107.031,368.705 107.545,371.087 106.335 C 372.823 105.453,374.622 104.260,374.217 104.259 C 374.116 104.258,373.082 104.804,371.919 105.471 M42.173 106.221 C 42.983 106.946,43.798 107.542,43.984 107.545 C 44.170 107.548,44.253 107.500,44.168 107.438 C 44.084 107.375,43.269 106.780,42.357 106.114 L 40.700 104.903 42.173 106.221 M281.308 106.288 C 279.931 107.035,280.014 107.346,281.400 106.630 C 282.007 106.316,282.505 105.980,282.505 105.884 C 282.505 105.647,282.465 105.660,281.308 106.288 M178.183 106.645 C 179.047 106.916,180.539 107.230,181.498 107.341 C 182.688 107.478,182.306 107.316,180.295 106.831 C 176.907 106.013,175.891 105.924,178.183 106.645 M189.938 106.317 C 189.807 106.449,188.909 106.769,187.943 107.029 C 186.978 107.288,186.566 107.512,187.028 107.526 C 187.910 107.552,190.424 106.630,190.424 106.280 C 190.424 106.009,190.231 106.024,189.938 106.317 M264.729 106.799 C 263.967 106.947,263.233 107.178,263.098 107.313 C 262.858 107.553,264.099 107.377,266.667 106.806 C 268.365 106.429,266.672 106.422,264.729 106.799 M278.361 107.944 C 277.601 108.345,276.980 108.755,276.980 108.856 C 276.980 108.957,277.643 108.701,278.453 108.287 C 279.263 107.874,279.926 107.456,279.926 107.359 C 279.926 107.118,279.924 107.119,278.361 107.944 M368.140 107.606 C 366.202 108.662,365.017 109.627,365.041 110.129 C 365.057 110.470,365.135 110.514,365.245 110.245 C 365.343 110.005,366.242 109.283,367.242 108.641 C 368.242 107.999,369.061 107.408,369.061 107.328 C 369.061 107.125,368.976 107.151,368.140 107.606 M275.414 109.603 C 274.037 110.350,274.121 110.661,275.506 109.945 C 276.114 109.630,276.611 109.295,276.611 109.199 C 276.611 108.962,276.572 108.975,275.414 109.603 M239.871 111.488 C 240.226 111.580,240.806 111.580,241.160 111.488 C 241.515 111.395,241.225 111.319,240.516 111.319 C 239.807 111.319,239.517 111.395,239.871 111.488 M51.197 112.473 C 51.197 112.574,51.694 113.011,52.302 113.444 C 52.910 113.877,53.407 114.148,53.407 114.046 C 53.407 113.945,52.910 113.508,52.302 113.076 C 51.694 112.643,51.197 112.372,51.197 112.473 M262.523 116.784 C 261.763 117.185,261.142 117.595,261.142 117.696 C 261.142 117.796,261.805 117.540,262.615 117.127 C 263.425 116.714,264.088 116.296,264.088 116.199 C 264.088 115.958,264.086 115.959,262.523 116.784 M60.221 118.467 C 61.125 119.377,63.719 121.211,63.708 120.933 C 63.696 120.612,62.821 119.927,60.958 118.778 C 60.350 118.403,60.018 118.264,60.221 118.467 M360.940 120.522 C 360.673 121.187,359.822 123.041,359.049 124.642 C 357.595 127.653,357.292 128.503,358.123 127.246 C 358.909 126.055,361.765 119.653,361.588 119.477 C 361.499 119.387,361.207 119.857,360.940 120.522 M301.309 121.738 C 300.003 122.442,298.760 123.209,298.547 123.442 C 298.333 123.676,299.090 123.345,300.229 122.707 C 303.242 121.019,303.236 121.237,300.184 124.309 C 298.675 125.829,297.522 127.072,297.623 127.072 C 297.723 127.072,299.290 125.580,301.105 123.757 C 304.754 120.091,304.777 119.870,301.309 121.738 M64.641 121.879 C 65.448 122.815,68.140 125.026,68.140 124.753 C 68.140 124.660,67.187 123.782,66.022 122.804 C 64.857 121.825,64.236 121.409,64.641 121.879 M252.222 122.549 C 250.861 123.294,249.813 123.969,249.892 124.048 C 250.051 124.207,254.880 121.576,254.880 121.331 C 254.880 121.096,254.855 121.108,252.222 122.549 M295.304 125.073 C 293.927 125.820,294.011 126.131,295.396 125.414 C 296.004 125.100,296.501 124.764,296.501 124.668 C 296.501 124.431,296.461 124.445,295.304 125.073 M247.053 125.441 C 245.676 126.188,245.760 126.499,247.145 125.783 C 247.753 125.468,248.250 125.133,248.250 125.037 C 248.250 124.800,248.211 124.813,247.053 125.441 M118.969 126.538 C 118.057 126.799,116.368 127.026,115.215 127.042 C 112.507 127.080,112.444 127.272,114.429 129.471 C 115.340 130.481,115.921 130.976,115.720 130.571 C 115.518 130.166,114.924 129.432,114.398 128.941 C 113.077 127.706,113.172 127.566,115.378 127.493 C 117.219 127.432,121.179 126.509,121.179 126.141 C 121.179 125.923,121.009 125.953,118.969 126.538 M292.357 126.729 C 291.598 127.130,290.976 127.540,290.976 127.641 C 290.976 127.741,291.639 127.485,292.449 127.072 C 293.260 126.658,293.923 126.241,293.923 126.144 C 293.923 125.903,293.920 125.904,292.357 126.729 M243.668 127.268 C 243.275 127.565,243.119 127.808,243.321 127.808 C 243.524 127.808,244.012 127.565,244.405 127.268 C 244.798 126.970,244.954 126.727,244.751 126.727 C 244.549 126.727,244.061 126.970,243.668 127.268 M286.001 138.582 L 274.954 149.724 286.096 138.676 C 292.224 132.600,297.238 127.586,297.238 127.535 C 297.238 127.274,296.268 128.228,286.001 138.582 M71.823 127.896 C 71.823 127.977,73.564 129.572,75.691 131.440 C 77.818 133.308,79.548 134.705,79.536 134.545 C 79.524 134.385,78.434 133.343,77.114 132.228 C 75.794 131.114,74.063 129.650,73.268 128.975 C 72.473 128.300,71.823 127.814,71.823 127.896 M239.170 129.841 C 236.953 131.098,233.128 134.811,233.171 135.665 C 233.183 135.902,233.390 135.775,233.631 135.383 C 234.742 133.579,237.160 131.345,239.289 130.154 C 240.571 129.437,241.621 128.781,241.621 128.698 C 241.621 128.458,241.564 128.484,239.170 129.841 M286.464 130.043 C 285.704 130.445,285.083 130.855,285.083 130.956 C 285.083 131.056,285.746 130.800,286.556 130.387 C 287.366 129.973,288.029 129.556,288.029 129.458 C 288.029 129.218,288.027 129.218,286.464 130.043 M279.926 133.735 C 279.315 134.235,279.253 134.360,279.742 134.107 C 280.944 133.486,281.610 132.976,281.215 132.979 C 281.013 132.980,280.433 133.320,279.926 133.735 M119.188 134.873 C 119.574 135.314,120.700 136.516,121.690 137.543 C 122.974 138.875,122.831 138.644,121.192 136.740 C 119.927 135.272,118.801 134.070,118.690 134.070 C 118.578 134.070,118.802 134.431,119.188 134.873 M353.732 135.267 C 352.464 137.418,352.381 137.602,353.027 136.832 C 353.775 135.941,354.420 134.807,354.178 134.807 C 354.082 134.807,353.881 135.014,353.732 135.267 M276.151 135.754 C 274.774 136.501,274.858 136.812,276.243 136.096 C 276.851 135.781,277.348 135.446,277.348 135.350 C 277.348 135.113,277.308 135.126,276.151 135.754 M320.122 139.761 C 318.022 141.649,315.701 143.821,314.966 144.588 C 314.230 145.355,315.948 143.908,318.785 141.373 C 321.621 138.838,324.190 136.668,324.494 136.551 C 324.985 136.362,324.985 136.338,324.494 136.334 C 324.190 136.331,322.223 137.874,320.122 139.761 M82.246 136.895 C 82.392 137.131,84.126 138.700,86.099 140.379 C 88.072 142.059,89.469 143.162,89.204 142.830 C 88.551 142.015,81.910 136.350,82.246 136.895 M351.381 139.227 C 350.968 140.037,350.712 140.700,350.814 140.700 C 350.915 140.700,351.336 140.037,351.750 139.227 C 352.163 138.416,352.418 137.753,352.317 137.753 C 352.216 137.753,351.795 138.416,351.381 139.227 M270.994 138.701 C 269.618 139.448,269.701 139.759,271.087 139.042 C 271.694 138.728,272.192 138.392,272.192 138.296 C 272.192 138.059,272.152 138.073,270.994 138.701 M322.358 141.629 C 321.917 142.536,321.634 143.278,321.728 143.278 C 321.978 143.278,323.466 140.286,323.300 140.120 C 323.222 140.043,322.799 140.722,322.358 141.629 M263.255 142.976 C 262.087 143.610,261.189 144.185,261.258 144.254 C 261.407 144.403,265.562 142.190,265.562 141.961 C 265.562 141.727,265.540 141.736,263.255 142.976 M89.871 143.393 C 89.871 143.457,90.410 143.995,91.068 144.590 L 92.265 145.672 91.183 144.475 C 90.175 143.359,89.871 143.109,89.871 143.393 M127.441 144.199 C 127.947 144.807,128.402 145.373,128.453 145.457 C 128.504 145.542,128.626 145.530,128.725 145.430 C 128.825 145.331,128.369 144.765,127.714 144.172 L 126.522 143.094 127.441 144.199 M348.601 144.417 C 348.277 145.044,348.077 145.622,348.157 145.702 C 348.237 145.782,348.578 145.269,348.915 144.563 C 349.673 142.974,349.410 142.853,348.601 144.417 M129.282 146.340 C 129.282 146.403,129.820 146.942,130.479 147.537 L 131.676 148.619 130.594 147.422 C 129.586 146.306,129.282 146.055,129.282 146.340 M311.395 147.790 L 310.313 148.987 311.510 147.905 C 312.169 147.310,312.707 146.772,312.707 146.708 C 312.707 146.424,312.403 146.674,311.395 147.790 M95.396 148.161 C 95.396 148.251,96.432 149.216,97.698 150.306 C 98.964 151.396,99.768 151.996,99.485 151.639 C 98.890 150.889,95.396 147.917,95.396 148.161 M236.096 149.355 C 236.783 150.064,237.428 150.645,237.529 150.645 C 237.631 150.645,237.151 150.064,236.464 149.355 C 235.777 148.646,235.132 148.066,235.030 148.066 C 234.929 148.066,235.409 148.646,236.096 149.355 M133.720 151.381 C 136.335 154.550,137.483 155.752,136.358 154.144 C 135.933 153.536,134.653 152.044,133.513 150.829 L 131.440 148.619 133.720 151.381 M251.115 149.687 C 249.186 150.833,248.881 151.255,250.645 150.336 C 252.491 149.374,253.332 148.806,252.855 148.843 C 252.652 148.859,251.869 149.239,251.115 149.687 M306.262 152.344 L 303.315 155.139 306.354 152.485 C 309.027 150.149,309.652 149.525,309.300 149.545 C 309.250 149.547,307.882 150.807,306.262 152.344 M272.364 152.210 L 270.166 154.512 272.468 152.314 C 273.734 151.104,274.770 150.069,274.770 150.012 C 274.770 149.739,274.406 150.072,272.364 152.210 M345.548 150.845 C 344.931 152.199,345.048 152.488,345.716 151.257 C 346.027 150.682,346.213 150.142,346.129 150.058 C 346.045 149.974,345.783 150.328,345.548 150.845 M318.721 155.249 C 318.723 156.667,318.789 157.202,318.869 156.437 C 318.949 155.673,318.948 154.513,318.866 153.859 C 318.785 153.205,318.720 153.831,318.721 155.249 M344.075 154.159 C 343.457 155.514,343.575 155.803,344.242 154.571 C 344.554 153.996,344.740 153.457,344.656 153.373 C 344.572 153.289,344.310 153.643,344.075 154.159 M102.762 154.439 C 102.762 154.540,103.757 155.485,104.972 156.538 C 106.188 157.591,107.182 158.369,107.182 158.268 C 107.182 158.167,106.188 157.222,104.972 156.169 C 103.757 155.116,102.762 154.338,102.762 154.439 M267.035 157.459 C 265.526 158.978,264.453 160.200,264.650 160.175 C 265.009 160.130,270.260 154.696,269.945 154.696 C 269.854 154.696,268.544 155.939,267.035 157.459 M300.768 157.130 C 299.570 158.223,298.661 159.188,298.747 159.275 C 298.833 159.361,299.862 158.512,301.033 157.387 C 303.789 154.738,303.596 154.550,300.768 157.130 M137.569 156.538 C 137.883 157.145,138.223 157.643,138.325 157.643 C 138.426 157.643,138.252 157.145,137.937 156.538 C 137.623 155.930,137.283 155.433,137.182 155.433 C 137.081 155.433,137.255 155.930,137.569 156.538 M342.419 158.072 C 342.085 158.921,341.873 159.675,341.947 159.749 C 342.021 159.823,342.357 159.193,342.695 158.349 C 343.033 157.505,343.245 156.750,343.167 156.672 C 343.089 156.594,342.752 157.224,342.419 158.072 M107.881 158.858 C 108.477 159.608,111.971 162.580,111.971 162.336 C 111.971 162.247,110.935 161.281,109.669 160.191 C 108.402 159.101,107.598 158.501,107.881 158.858 M263.061 161.971 C 262.670 162.528,262.156 163.356,261.918 163.812 C 261.142 165.295,261.740 164.687,262.913 162.799 C 264.139 160.828,264.233 160.297,263.061 161.971 M293.592 163.558 C 292.701 164.363,292.039 165.090,292.121 165.172 C 292.204 165.255,293.048 164.589,293.996 163.692 C 296.139 161.668,295.805 161.557,293.592 163.558 M113.076 163.279 C 113.076 163.380,114.070 164.325,115.285 165.378 C 116.501 166.431,117.495 167.209,117.495 167.108 C 117.495 167.007,116.501 166.062,115.285 165.009 C 114.070 163.956,113.076 163.178,113.076 163.279 M320.473 165.193 C 320.473 165.396,320.790 166.142,321.179 166.851 C 321.567 167.560,321.884 167.974,321.884 167.772 C 321.884 167.569,321.567 166.823,321.179 166.114 C 320.790 165.405,320.473 164.991,320.473 165.193 M117.884 167.495 C 117.895 167.647,118.434 168.175,119.081 168.669 L 120.258 169.566 119.176 168.393 C 118.051 167.172,117.850 167.032,117.884 167.495 M338.164 169.097 C 337.938 169.745,337.765 170.458,337.779 170.681 C 337.793 170.904,338.043 170.438,338.333 169.645 C 338.624 168.853,338.797 168.140,338.718 168.061 C 338.639 167.983,338.390 168.449,338.164 169.097 M322.652 169.429 C 323.085 170.037,323.522 170.534,323.623 170.534 C 323.724 170.534,323.453 170.037,323.020 169.429 C 322.588 168.821,322.151 168.324,322.049 168.324 C 321.948 168.324,322.219 168.821,322.652 169.429 M136.672 170.626 C 135.774 171.690,135.500 172.145,136.064 171.639 C 137.013 170.786,138.690 168.692,138.423 168.693 C 138.358 168.693,137.571 169.563,136.672 170.626 M286.060 170.365 C 285.078 171.268,284.422 172.007,284.602 172.007 C 284.782 172.007,285.661 171.262,286.556 170.350 C 288.635 168.232,288.369 168.240,286.060 170.365 M122.284 171.239 C 123.256 172.078,126.478 173.861,126.967 173.831 C 127.126 173.822,126.344 173.324,125.230 172.726 C 124.116 172.128,122.790 171.370,122.284 171.041 L 121.363 170.444 122.284 171.239 M133.333 173.112 C 132.624 173.501,132.177 173.825,132.339 173.834 C 132.729 173.854,134.807 172.774,134.807 172.550 C 134.807 172.309,134.785 172.318,133.333 173.112 M326.150 173.423 C 326.551 173.897,327.213 174.456,327.620 174.665 C 328.402 175.065,328.289 174.942,326.522 173.475 C 325.458 172.592,325.445 172.590,326.150 173.423 M336.168 174.406 C 335.831 175.113,335.631 175.691,335.724 175.691 C 335.976 175.691,337.094 173.435,336.926 173.267 C 336.846 173.187,336.505 173.700,336.168 174.406 M129.931 174.109 C 130.389 174.198,131.052 174.194,131.404 174.102 C 131.756 174.010,131.381 173.938,130.571 173.942 C 129.761 173.946,129.472 174.021,129.931 174.109 M192.397 188.922 C 191.761 189.310,191.128 189.809,190.991 190.032 C 190.784 190.366,193.163 188.911,193.698 188.377 C 194.058 188.017,193.493 188.254,192.397 188.922 M200.992 189.318 C 202.124 189.967,203.372 191.094,204.049 192.077 C 204.677 192.991,205.275 193.738,205.376 193.738 C 205.477 193.738,205.036 192.977,204.396 192.047 C 203.326 190.491,200.389 188.209,199.467 188.217 C 199.254 188.219,199.940 188.714,200.992 189.318 M155.530 191.056 C 156.090 191.141,156.919 191.139,157.372 191.051 C 157.825 190.964,157.366 190.894,156.354 190.897 C 155.341 190.900,154.970 190.972,155.530 191.056 M189.457 191.621 C 188.370 192.862,187.734 193.738,187.923 193.738 C 188.015 193.738,188.623 193.076,189.274 192.265 C 190.538 190.692,190.667 190.241,189.457 191.621 M161.142 192.438 C 161.750 192.936,162.403 193.350,162.595 193.357 C 162.786 193.364,162.381 192.956,161.694 192.449 C 160.089 191.265,159.701 191.257,161.142 192.438 M149.970 193.646 L 148.586 195.028 149.892 193.924 C 150.610 193.317,151.355 192.695,151.547 192.542 C 151.739 192.390,151.774 192.265,151.625 192.265 C 151.475 192.265,150.730 192.887,149.970 193.646 M163.459 194.507 C 163.698 194.828,164.483 196.320,165.203 197.822 C 165.922 199.324,166.407 200.138,166.279 199.632 C 165.944 198.302,164.299 195.121,163.611 194.475 C 163.086 193.981,163.070 193.985,163.459 194.507 M145.983 203.131 C 145.984 204.751,146.049 205.369,146.127 204.502 C 146.204 203.636,146.203 202.310,146.124 201.556 C 146.045 200.801,145.981 201.510,145.983 203.131 M166.534 201.105 C 166.534 201.409,166.677 201.989,166.851 202.394 C 167.050 202.858,167.167 202.927,167.167 202.578 C 167.167 202.274,167.025 201.694,166.851 201.289 C 166.651 200.825,166.534 200.757,166.534 201.105 M203.315 218.600 C 203.054 220.128,202.915 221.454,203.007 221.546 C 203.099 221.638,203.385 220.460,203.642 218.928 C 203.900 217.396,204.038 216.070,203.950 215.982 C 203.862 215.894,203.576 217.072,203.315 218.600 M182.315 219.368 C 182.312 219.756,182.004 222.031,181.631 224.422 C 181.258 226.814,181.071 228.637,181.214 228.474 C 181.588 228.050,182.826 219.168,182.550 218.891 C 182.424 218.765,182.318 218.979,182.315 219.368 M202.026 225.414 C 201.884 226.252,201.846 227.015,201.940 227.109 C 202.035 227.203,202.222 226.590,202.357 225.746 C 202.492 224.902,202.531 224.139,202.443 224.051 C 202.355 223.963,202.167 224.577,202.026 225.414 M180.709 230.249 C 180.402 231.784,180.700 232.081,181.031 230.571 C 181.171 229.934,181.209 229.336,181.115 229.243 C 181.021 229.149,180.838 229.601,180.709 230.249 M172.796 236.096 C 172.785 236.602,173.001 238.011,173.275 239.227 C 173.923 242.101,173.953 240.689,173.310 237.569 C 173.038 236.252,172.807 235.589,172.796 236.096 M203.171 240.550 C 202.180 240.952,200.949 241.611,200.437 242.014 C 199.713 242.584,199.438 242.642,199.205 242.276 C 199.003 241.957,198.904 242.084,198.901 242.670 L 198.895 243.535 200.092 242.735 C 208.352 237.221,218.892 241.033,221.447 250.458 C 222.006 252.520,222.070 252.623,221.907 251.197 C 220.992 243.192,210.856 237.432,203.171 240.550 M173.935 242.541 C 173.936 243.149,174.063 244.144,174.217 244.751 C 174.607 246.283,174.624 244.776,174.238 242.910 C 173.982 241.671,173.934 241.612,173.935 242.541 M151.807 244.015 C 151.787 245.287,153.117 253.232,153.163 252.118 C 153.180 251.713,152.886 249.475,152.509 247.145 C 152.133 244.816,151.817 243.407,151.807 244.015 M174.622 246.992 C 174.643 247.583,174.800 248.481,174.972 248.987 C 175.183 249.608,175.216 249.308,175.072 248.066 C 174.833 245.994,174.567 245.358,174.622 246.992 M224.040 252.648 C 223.183 252.788,222.354 253.031,222.198 253.187 C 222.043 253.344,222.578 253.342,223.389 253.183 C 233.612 251.170,242.012 260.871,238.690 270.853 C 238.235 272.223,237.937 273.419,238.030 273.512 C 238.305 273.787,239.884 268.461,240.059 266.667 C 240.602 261.101,235.384 254.459,229.204 252.850 C 226.968 252.267,226.492 252.249,224.040 252.648 M158.002 281.492 C 157.997 281.745,156.950 282.737,155.676 283.697 C 151.969 286.490,151.607 286.985,151.871 288.910 C 152.002 289.868,151.943 290.630,151.730 290.737 C 151.528 290.838,151.574 290.876,151.832 290.820 C 152.150 290.753,152.265 290.187,152.187 289.080 C 152.056 287.217,152.513 286.617,156.262 283.726 C 157.426 282.828,158.379 281.854,158.379 281.562 C 158.379 280.914,158.015 280.845,158.002 281.492 M239.294 286.004 C 239.844 292.676,240.112 294.680,239.910 290.608 C 239.805 288.481,239.575 285.994,239.400 285.083 C 239.147 283.765,239.126 283.953,239.294 286.004 M149.767 292.819 C 148.570 294.144,148.226 294.659,148.541 294.659 C 148.599 294.659,149.270 293.913,150.032 293.002 C 151.750 290.947,151.570 290.823,149.767 292.819 M240.227 301.105 C 240.179 304.751,240.061 308.398,239.965 309.208 L 239.790 310.681 240.161 309.234 C 240.365 308.436,240.483 304.797,240.423 301.131 L 240.314 294.475 240.227 301.105 M146.096 300.647 C 145.981 301.105,145.807 303.549,145.710 306.080 L 145.533 310.681 145.855 306.814 C 146.032 304.687,146.281 302.242,146.407 301.381 C 146.652 299.725,146.448 299.245,146.096 300.647 M145.893 313.106 C 145.913 313.798,146.068 314.779,146.237 315.285 C 146.435 315.880,146.470 315.488,146.335 314.180 C 146.095 311.863,145.839 311.240,145.893 313.106 M239.257 316.789 C 239.119 317.833,239.080 318.760,239.170 318.851 C 239.261 318.942,239.452 318.166,239.595 317.127 C 239.738 316.088,239.777 315.160,239.682 315.065 C 239.587 314.970,239.396 315.746,239.257 316.789 M151.396 326.853 C 152.088 327.817,152.814 328.704,153.008 328.824 C 153.202 328.944,152.795 328.254,152.103 327.290 C 151.411 326.326,150.685 325.440,150.491 325.320 C 150.297 325.199,150.704 325.890,151.396 326.853 M233.215 330.748 L 230.923 334.055 231.032 340.785 L 231.141 347.514 231.224 340.780 L 231.308 334.046 233.276 331.204 C 235.423 328.104,235.840 327.440,235.639 327.440 C 235.566 327.440,234.475 328.929,233.215 330.748 M156.989 333.576 C 157.529 334.185,157.641 335.258,157.735 340.719 L 157.845 347.145 157.928 340.512 C 158.010 333.987,157.998 333.871,157.182 333.370 C 156.379 332.876,156.373 332.883,156.989 333.576 M159.824 352.021 C 160.477 352.879,161.165 353.676,161.353 353.792 C 162.056 354.226,161.648 353.635,160.166 352.072 L 158.637 350.460 159.824 352.021 M227.657 353.367 C 227.423 353.649,226.735 354.086,226.127 354.338 C 225.519 354.589,225.095 354.868,225.184 354.957 C 225.421 355.194,227.415 354.103,227.972 353.431 C 228.236 353.114,228.368 352.855,228.267 352.855 C 228.166 352.855,227.891 353.085,227.657 353.367 M179.438 355.341 C 187.678 355.396,201.270 355.396,209.641 355.341 C 218.012 355.285,211.271 355.240,194.659 355.240 C 178.048 355.240,171.198 355.285,179.438 355.341 " stroke="none" fill="#a59678" fill-rule="evenodd"></path><path id="path3" d="M343.923 31.574 C 344.581 31.656,345.658 31.656,346.317 31.574 C 346.975 31.492,346.436 31.425,345.120 31.425 C 343.803 31.425,343.264 31.492,343.923 31.574 M323.994 33.064 C 323.898 33.220,324.509 33.294,325.353 33.229 C 327.832 33.037,328.133 32.869,326.081 32.824 C 325.029 32.800,324.090 32.908,323.994 33.064 M264.369 52.563 C 264.827 52.651,265.490 52.647,265.842 52.555 C 266.194 52.463,265.820 52.391,265.009 52.395 C 264.199 52.399,263.911 52.474,264.369 52.563 M278.484 77.483 C 278.568 77.558,279.300 77.720,280.110 77.843 C 281.137 77.999,281.361 77.966,280.847 77.734 C 280.140 77.413,278.167 77.204,278.484 77.483 M226.685 101.075 C 226.555 101.767,226.599 102.601,226.782 102.928 C 227.014 103.344,227.114 102.966,227.114 101.669 C 227.114 99.494,227.009 99.348,226.685 101.075 M232.145 140.331 C 232.145 141.243,232.216 141.616,232.304 141.160 C 232.392 140.704,232.392 139.959,232.304 139.503 C 232.216 139.047,232.145 139.420,232.145 140.331 M242.634 152.378 C 243.089 152.466,243.835 152.466,244.291 152.378 C 244.747 152.290,244.374 152.218,243.462 152.218 C 242.551 152.218,242.178 152.290,242.634 152.378 M139.700 163.720 C 139.703 164.733,139.774 165.104,139.859 164.544 C 139.944 163.984,139.942 163.155,139.854 162.702 C 139.767 162.249,139.697 162.707,139.700 163.720 M194.183 188.159 C 193.917 188.327,194.649 188.394,195.840 188.309 C 198.750 188.103,199.132 187.908,196.685 187.880 C 195.571 187.867,194.445 187.993,194.183 188.159 M239.864 311.602 C 239.864 312.311,239.940 312.601,240.033 312.247 C 240.126 311.892,240.126 311.312,240.033 310.958 C 239.940 310.603,239.864 310.893,239.864 311.602 " stroke="none" fill="#9b9c8c" fill-rule="evenodd"></path><path id="path4" d="M52.855 13.650 C 52.247 13.828,51.561 14.278,51.330 14.650 C 50.966 15.239,51.136 15.212,52.619 14.448 C 54.725 13.363,59.160 13.405,60.870 14.525 C 61.425 14.889,61.878 15.082,61.878 14.954 C 61.878 13.599,55.953 12.742,52.855 13.650 M62.247 15.256 C 62.247 15.328,63.334 16.069,64.663 16.902 C 67.283 18.545,67.601 18.347,65.082 16.641 C 63.603 15.639,62.247 14.977,62.247 15.256 M49.171 16.492 C 48.766 17.042,48.259 17.824,48.043 18.230 C 47.828 18.636,47.353 19.424,46.988 19.982 C 46.623 20.539,46.409 20.994,46.512 20.994 C 46.616 20.994,47.244 20.124,47.909 19.061 C 48.574 17.997,49.449 16.754,49.853 16.298 C 50.258 15.843,50.436 15.475,50.248 15.481 C 50.061 15.488,49.576 15.943,49.171 16.492 M67.403 18.546 C 67.403 18.618,68.591 19.466,70.042 20.431 L 72.681 22.186 75.659 21.599 C 77.784 21.181,78.057 21.077,76.611 21.237 C 73.173 21.617,72.676 21.518,70.165 19.943 C 67.823 18.475,67.403 18.263,67.403 18.546 M84.530 20.994 C 89.209 21.221,91.067 21.475,93.543 22.223 C 96.439 23.098,98.089 23.295,96.088 22.527 C 92.997 21.341,89.763 20.861,84.346 20.786 L 78.637 20.708 84.530 20.994 M45.138 22.595 C 44.036 24.040,43.869 24.925,44.954 23.573 C 45.859 22.445,46.497 21.363,46.256 21.363 C 46.158 21.363,45.655 21.917,45.138 22.595 M42.865 25.875 C 42.525 26.533,42.005 27.445,41.708 27.901 C 41.411 28.356,41.246 28.729,41.342 28.729 C 41.438 28.729,42.122 27.818,42.861 26.703 C 43.601 25.589,44.043 24.678,43.844 24.678 C 43.644 24.678,43.204 25.216,42.865 25.875 M100.387 24.969 C 100.579 25.130,102.459 26.414,104.564 27.824 C 106.670 29.233,109.156 31.028,110.089 31.813 L 111.786 33.239 110.132 31.629 C 109.221 30.743,108.511 29.910,108.554 29.778 C 108.597 29.646,108.015 29.252,107.262 28.903 C 106.509 28.553,104.697 27.459,103.235 26.472 C 100.953 24.931,99.285 24.051,100.387 24.969 M38.706 32.136 C 37.481 33.808,36.475 35.415,36.471 35.709 C 36.461 36.465,36.826 36.011,39.191 32.320 C 41.786 28.271,41.593 28.198,38.706 32.136 M345.856 31.303 C 350.034 31.560,351.504 31.861,356.121 33.407 C 356.520 33.541,356.475 33.430,355.985 33.078 C 354.177 31.777,351.254 31.185,346.225 31.102 L 341.252 31.019 345.856 31.303 M337.937 31.873 C 336.510 32.527,337.090 32.532,339.411 31.886 C 340.876 31.478,341.026 31.373,340.147 31.370 C 339.540 31.369,338.545 31.595,337.937 31.873 M327.072 32.803 C 329.073 33.034,336.266 32.918,336.534 32.650 C 336.610 32.574,334.056 32.524,330.859 32.540 C 327.184 32.559,325.791 32.655,327.072 32.803 M111.971 33.342 C 111.971 33.435,112.295 33.886,112.692 34.343 C 113.089 34.801,113.679 35.506,114.002 35.912 C 114.325 36.317,114.208 35.947,113.741 35.089 C 113.028 33.782,111.971 32.738,111.971 33.342 M318.969 33.537 C 318.573 33.806,318.834 33.843,319.890 33.666 C 321.717 33.361,322.011 33.147,320.595 33.155 C 320.005 33.158,319.273 33.330,318.969 33.537 M357.643 34.051 C 357.643 34.152,358.140 34.492,358.748 34.807 C 359.355 35.121,359.853 35.295,359.853 35.194 C 359.853 35.093,359.355 34.753,358.748 34.438 C 358.140 34.124,357.643 33.950,357.643 34.051 M314.787 34.662 C 314.006 34.845,312.929 35.296,312.393 35.664 C 311.857 36.032,310.786 36.624,310.013 36.980 C 308.226 37.802,305.600 39.569,304.934 40.398 C 304.651 40.749,305.000 40.610,305.709 40.089 C 307.684 38.639,311.764 36.469,314.682 35.317 C 317.342 34.267,317.376 34.053,314.787 34.662 M361.918 36.704 C 362.909 37.444,364.224 38.479,364.839 39.006 C 365.454 39.532,365.194 39.206,364.260 38.281 C 362.419 36.456,360.990 35.359,360.454 35.359 C 360.268 35.359,360.926 35.964,361.918 36.704 M33.712 40.007 C 32.775 41.347,32.074 42.509,32.153 42.589 C 32.233 42.669,33.071 41.572,34.016 40.152 C 36.192 36.879,35.972 36.773,33.712 40.007 M115.101 38.122 C 115.240 38.527,115.442 39.791,115.551 40.930 C 115.732 42.840,115.845 43.048,116.980 43.590 C 118.200 44.172,118.332 44.435,118.764 47.153 C 118.945 48.291,119.251 48.602,121.272 49.701 C 123.131 50.712,123.438 50.799,122.871 50.154 C 122.485 49.715,121.941 49.355,121.662 49.355 C 120.633 49.355,118.969 47.185,118.969 45.844 C 118.969 45.028,118.703 44.335,118.232 43.923 C 117.827 43.568,117.189 43.013,116.813 42.688 C 116.416 42.345,116.029 41.345,115.887 40.294 C 115.752 39.302,115.463 38.241,115.245 37.937 C 114.925 37.492,114.897 37.528,115.101 38.122 M366.724 40.980 C 367.592 42.398,368.692 43.896,368.692 43.661 C 368.692 43.003,367.481 40.922,366.987 40.733 C 366.623 40.593,366.536 40.674,366.724 40.980 M303.092 41.294 C 302.564 41.488,301.943 42.063,301.711 42.572 C 301.306 43.461,301.347 43.451,302.762 42.313 C 304.017 41.305,304.521 40.794,304.144 40.913 C 304.093 40.929,303.620 41.101,303.092 41.294 M31.003 43.946 C 30.563 44.415,30.203 44.924,30.203 45.077 C 30.203 45.230,29.689 46.101,29.062 47.013 C 28.435 47.925,28.003 48.751,28.102 48.850 C 28.200 48.949,28.906 47.985,29.669 46.707 C 30.432 45.429,31.304 44.093,31.607 43.738 C 32.420 42.788,31.935 42.955,31.003 43.946 M370.350 47.053 C 371.096 48.421,371.854 49.694,372.035 49.883 C 372.617 50.492,371.748 48.018,371.124 47.289 C 370.796 46.906,370.513 46.427,370.495 46.225 C 370.433 45.547,369.776 44.567,369.382 44.567 C 369.168 44.567,369.604 45.686,370.350 47.053 M294.107 47.362 C 292.891 48.042,291.601 48.603,291.239 48.608 C 290.878 48.614,290.212 48.861,289.761 49.157 C 288.135 50.222,284.381 50.781,275.875 51.223 C 271.114 51.470,266.888 51.817,266.483 51.994 C 266.017 52.197,266.694 52.247,268.324 52.131 C 269.742 52.030,274.052 51.770,277.901 51.554 C 286.519 51.070,291.937 49.610,296.202 46.622 C 297.592 45.649,296.448 46.053,294.107 47.362 M26.888 50.460 C 26.455 51.068,26.184 51.565,26.285 51.565 C 26.386 51.565,26.823 51.068,27.256 50.460 C 27.689 49.853,27.960 49.355,27.859 49.355 C 27.757 49.355,27.320 49.853,26.888 50.460 M373.880 53.223 C 375.742 56.677,376.966 58.659,376.651 57.705 C 376.528 57.334,376.427 56.890,376.427 56.718 C 376.427 56.547,376.220 56.187,375.967 55.919 C 375.713 55.652,375.028 54.521,374.444 53.407 C 373.860 52.293,373.137 51.133,372.837 50.829 C 372.538 50.525,373.007 51.602,373.880 53.223 M258.656 52.570 C 259.415 52.650,260.658 52.650,261.418 52.570 C 262.178 52.491,261.556 52.426,260.037 52.426 C 258.517 52.426,257.896 52.491,258.656 52.570 M127.072 52.845 C 127.072 52.941,127.610 53.283,128.269 53.604 L 129.466 54.188 128.545 53.437 C 127.659 52.715,127.072 52.479,127.072 52.845 M253.867 52.934 C 254.424 53.019,255.336 53.019,255.893 52.934 C 256.450 52.850,255.994 52.781,254.880 52.781 C 253.766 52.781,253.310 52.850,253.867 52.934 M24.648 53.511 C 24.328 53.758,23.618 54.854,23.071 55.948 C 22.523 57.041,21.618 58.533,21.059 59.262 C 20.500 59.992,19.393 61.584,18.597 62.799 C 17.802 64.015,16.875 65.341,16.537 65.746 C 16.199 66.151,15.804 66.897,15.659 67.403 C 15.515 67.910,16.472 66.667,17.786 64.641 C 19.100 62.615,20.500 60.543,20.898 60.037 C 21.593 59.151,25.456 53.026,25.304 53.050 C 25.263 53.057,24.968 53.264,24.648 53.511 M245.488 53.301 C 245.083 53.399,244.586 53.653,244.383 53.865 C 244.128 54.133,244.242 54.166,244.751 53.972 C 245.157 53.818,246.814 53.569,248.435 53.419 L 251.381 53.145 248.803 53.134 C 247.385 53.129,245.893 53.204,245.488 53.301 M129.651 54.265 C 129.949 54.558,139.363 59.907,141.391 60.934 C 142.684 61.590,143.193 61.717,143.052 61.349 C 142.940 61.057,142.367 60.713,141.778 60.583 C 141.190 60.454,140.614 60.196,140.499 60.010 C 140.384 59.824,138.766 58.912,136.904 57.982 C 135.041 57.052,133.103 55.913,132.597 55.449 C 131.856 54.772,129.001 53.623,129.651 54.265 M242.501 54.504 C 242.073 54.677,241.610 55.113,241.472 55.473 C 241.242 56.073,241.277 56.080,241.881 55.556 C 242.244 55.241,242.873 54.800,243.278 54.575 C 244.141 54.096,243.626 54.050,242.501 54.504 M240.096 56.630 C 238.892 58.083,238.645 58.662,239.725 57.501 C 240.362 56.815,240.884 56.193,240.884 56.120 C 240.884 55.833,240.608 56.012,240.096 56.630 M377.548 59.945 C 378.001 60.704,379.442 63.273,380.749 65.654 C 382.951 69.665,383.752 70.893,383.160 69.351 C 382.817 68.456,380.846 64.779,380.246 63.914 C 379.969 63.515,379.742 62.893,379.742 62.533 C 379.742 62.173,379.567 61.878,379.353 61.878 C 379.139 61.878,378.634 61.133,378.231 60.221 C 377.828 59.309,377.323 58.564,377.110 58.564 C 376.897 58.564,377.094 59.185,377.548 59.945 M237.716 59.870 C 237.374 61.233,237.783 61.377,238.244 60.056 C 238.473 59.399,238.493 58.932,238.294 58.932 C 238.105 58.932,237.845 59.354,237.716 59.870 M237.286 62.615 C 237.286 63.324,237.362 63.614,237.455 63.260 C 237.547 62.905,237.547 62.325,237.455 61.971 C 237.362 61.616,237.286 61.906,237.286 62.615 M144.015 62.236 C 144.319 62.459,145.064 62.902,145.672 63.220 L 146.777 63.798 146.041 63.061 C 145.635 62.655,144.890 62.213,144.383 62.077 C 143.658 61.883,143.579 61.916,144.015 62.236 M146.961 63.889 C 146.961 63.991,147.624 64.412,148.435 64.825 C 149.245 65.238,149.908 65.494,149.908 65.393 C 149.908 65.291,149.245 64.870,148.435 64.457 C 147.624 64.043,146.961 63.788,146.961 63.889 M236.956 65.055 C 237.068 65.435,237.267 66.510,237.398 67.445 C 237.654 69.261,241.270 73.665,242.505 73.665 C 242.817 73.665,243.752 74.019,244.583 74.453 C 246.571 75.489,250.106 76.227,252.855 76.179 L 255.064 76.140 252.302 75.868 C 243.633 75.013,237.569 70.837,237.569 65.721 C 237.569 65.252,237.386 64.755,237.161 64.616 C 236.897 64.453,236.825 64.608,236.956 65.055 M150.276 65.740 C 150.276 65.838,151.105 66.338,152.118 66.851 C 154.398 68.006,154.525 67.805,152.329 66.518 C 150.702 65.564,150.276 65.403,150.276 65.740 M154.512 68.063 C 155.351 68.854,159.853 71.119,159.853 70.750 C 159.853 70.530,159.627 70.350,159.352 70.350 C 159.076 70.350,158.289 69.975,157.602 69.518 C 156.213 68.592,153.936 67.520,154.512 68.063 M14.625 70.902 C 14.126 73.643,15.439 76.875,18.109 79.475 C 19.068 80.409,21.616 82.136,22.034 82.136 C 22.183 82.136,22.544 82.468,22.836 82.873 C 23.128 83.278,23.492 83.610,23.644 83.610 C 24.448 83.610,29.466 87.105,29.466 87.665 C 29.466 88.013,29.775 88.694,30.152 89.177 C 30.529 89.660,30.959 90.441,31.106 90.912 C 31.254 91.383,31.445 91.698,31.531 91.612 C 31.616 91.527,31.333 90.478,30.900 89.283 L 30.114 87.109 24.541 83.449 C 16.241 77.999,15.505 77.120,15.113 72.192 C 14.910 69.640,14.873 69.542,14.625 70.902 M160.442 71.443 C 160.624 71.618,161.519 72.165,162.431 72.657 C 163.343 73.149,165.401 74.270,167.005 75.147 C 168.609 76.025,169.805 76.553,169.661 76.321 C 169.518 76.089,168.602 75.498,167.626 75.008 C 166.651 74.518,165.522 73.834,165.119 73.489 C 164.368 72.846,159.844 70.867,160.442 71.443 M383.998 71.731 C 384.636 73.186,385.635 76.561,386.023 78.574 C 386.250 79.755,386.531 80.627,386.647 80.511 C 386.963 80.195,385.595 73.957,385.026 73.122 C 384.753 72.723,384.530 72.101,384.530 71.741 C 384.530 71.381,384.347 71.087,384.123 71.087 C 383.872 71.087,383.824 71.335,383.998 71.731 M258.107 76.504 C 258.566 76.592,259.229 76.588,259.581 76.496 C 259.933 76.404,259.558 76.332,258.748 76.336 C 257.937 76.340,257.649 76.415,258.107 76.504 M170.166 76.752 C 170.166 76.840,171.202 77.482,172.468 78.179 C 173.734 78.875,175.723 79.984,176.888 80.642 C 178.052 81.300,179.006 81.750,179.006 81.643 C 179.006 81.535,178.343 81.074,177.532 80.619 C 176.722 80.163,176.059 79.655,176.059 79.490 C 176.059 79.325,175.863 79.190,175.622 79.190 C 175.382 79.190,174.056 78.605,172.676 77.891 C 171.295 77.176,170.166 76.664,170.166 76.752 M261.971 76.875 C 262.528 76.960,263.439 76.960,263.996 76.875 C 264.553 76.791,264.098 76.722,262.983 76.722 C 261.869 76.722,261.413 76.791,261.971 76.875 M272.106 77.615 C 272.768 77.697,273.763 77.695,274.316 77.611 C 274.869 77.527,274.328 77.460,273.112 77.462 C 271.897 77.464,271.444 77.533,272.106 77.615 M278.633 77.990 C 279.440 78.072,280.287 78.294,280.514 78.482 C 280.740 78.670,281.488 78.704,282.176 78.557 C 283.615 78.248,281.124 77.749,278.453 77.811 C 277.214 77.839,277.221 77.846,278.633 77.990 M275.875 79.767 L 274.586 80.288 275.875 80.059 C 276.584 79.934,277.495 79.697,277.901 79.534 L 278.637 79.236 277.901 79.241 C 277.495 79.244,276.584 79.480,275.875 79.767 M271.364 80.637 C 270.403 80.771,269.414 81.083,269.166 81.331 C 268.668 81.830,269.826 81.671,272.928 80.817 C 274.727 80.321,274.124 80.252,271.364 80.637 M181.913 83.438 C 182.803 83.947,183.606 84.288,183.698 84.196 C 183.876 84.019,181.077 82.502,180.586 82.509 C 180.426 82.511,181.023 82.930,181.913 83.438 M262.799 82.873 L 262.063 83.189 262.799 83.179 C 263.204 83.173,263.950 83.035,264.457 82.873 L 265.378 82.578 264.457 82.567 C 263.950 82.561,263.204 82.699,262.799 82.873 M259.116 83.603 C 257.720 83.964,256.051 84.663,256.538 84.683 C 256.740 84.691,258.066 84.385,259.484 84.003 C 260.902 83.620,261.648 83.310,261.142 83.312 C 260.635 83.315,259.724 83.445,259.116 83.603 M184.162 84.518 C 184.162 84.589,185.388 85.321,186.886 86.143 C 188.384 86.965,190.227 88.347,190.982 89.215 C 191.738 90.082,192.175 90.441,191.955 90.012 C 191.735 89.582,191.639 89.147,191.741 89.045 C 192.008 88.777,189.728 86.924,189.132 86.924 C 188.859 86.924,188.409 86.699,188.134 86.424 C 187.643 85.933,184.162 84.262,184.162 84.518 M252.118 85.451 C 251.179 85.855,252.148 85.855,253.407 85.451 C 254.147 85.214,254.183 85.154,253.591 85.145 C 253.186 85.140,252.523 85.277,252.118 85.451 M385.999 85.912 C 385.995 86.640,385.746 87.734,384.759 91.344 C 384.593 91.952,384.763 91.798,385.260 90.892 C 385.978 89.582,386.737 85.083,386.240 85.083 C 386.110 85.083,386.002 85.456,385.999 85.912 M247.317 86.525 C 244.368 87.240,243.289 87.611,243.511 87.832 C 243.595 87.917,245.401 87.510,247.523 86.929 C 251.693 85.786,251.547 85.499,247.317 86.525 M238.858 88.593 C 238.048 88.884,236.971 89.131,236.464 89.141 C 235.958 89.150,235.222 89.401,234.828 89.699 C 234.435 89.996,234.186 90.230,234.276 90.219 C 235.706 90.044,242.230 88.096,241.436 88.081 C 240.829 88.071,239.669 88.301,238.858 88.593 M140.876 90.700 C 141.952 94.097,141.955 97.171,140.886 100.368 C 140.654 101.061,140.672 101.066,141.175 100.454 C 141.887 99.590,142.282 95.862,141.970 92.952 C 141.735 90.756,142.061 89.901,142.726 90.976 C 142.851 91.179,143.234 91.337,143.576 91.329 C 143.945 91.320,143.673 91.025,142.910 90.608 C 141.135 89.636,140.548 89.662,140.876 90.700 M231.614 90.897 C 231.547 91.057,230.963 91.558,230.317 92.011 C 229.671 92.465,228.886 93.370,228.572 94.024 C 228.007 95.198,228.014 95.195,229.157 93.806 C 229.793 93.033,230.907 91.998,231.632 91.504 C 232.434 90.959,232.714 90.608,232.345 90.608 C 232.011 90.608,231.682 90.738,231.614 90.897 M192.778 91.805 C 196.651 97.867,193.093 107.551,186.992 107.551 C 186.449 107.551,186.004 107.720,186.004 107.926 C 186.004 108.302,187.050 108.167,189.069 107.530 C 190.321 107.135,193.002 105.073,193.002 104.505 C 193.002 104.282,193.374 103.703,193.829 103.218 C 195.689 101.239,194.642 90.976,192.580 90.976 C 192.397 90.976,192.487 91.349,192.778 91.805 M145.672 92.294 C 146.528 92.987,149.402 94.296,150.031 94.280 C 150.607 94.265,149.581 93.689,147.037 92.599 C 145.695 92.024,145.202 91.914,145.672 92.294 M31.676 92.406 C 31.676 92.906,32.712 95.028,32.956 95.028 C 33.114 95.028,32.089 92.394,31.821 92.112 C 31.741 92.027,31.676 92.160,31.676 92.406 M383.690 93.726 C 383.181 94.793,383.171 94.961,383.627 94.786 C 383.925 94.672,384.270 94.174,384.394 93.681 C 384.742 92.294,384.361 92.319,383.690 93.726 M151.381 94.829 C 151.381 95.091,153.476 96.133,154.003 96.133 C 154.249 96.133,154.373 96.055,154.278 95.960 C 153.973 95.655,151.381 94.643,151.381 94.829 M33.369 96.133 C 34.229 99.327,39.563 105.635,43.332 107.916 C 45.974 109.514,48.062 110.964,48.189 111.289 C 48.257 111.461,48.518 111.602,48.769 111.602 C 49.021 111.602,49.616 112.017,50.092 112.523 C 50.568 113.029,51.135 113.445,51.353 113.446 C 51.681 113.449,56.348 116.401,57.643 117.425 C 58.080 117.771,59.550 118.359,59.265 118.074 C 59.157 117.966,55.930 115.782,52.094 113.222 C 40.397 105.414,36.652 102.066,34.120 97.152 C 33.571 96.085,33.232 95.626,33.369 96.133 M227.286 96.077 C 227.067 96.486,226.894 97.039,226.902 97.305 C 226.911 97.572,227.172 97.320,227.484 96.745 C 227.795 96.170,227.968 95.617,227.867 95.516 C 227.766 95.415,227.505 95.668,227.286 96.077 M156.481 97.255 C 157.754 98.031,166.707 102.394,167.027 102.394 C 167.126 102.394,168.246 102.906,169.515 103.531 C 172.635 105.068,178.089 107.185,178.900 107.173 C 179.262 107.168,178.353 106.753,176.881 106.251 C 175.408 105.750,172.902 104.677,171.313 103.867 C 169.723 103.057,168.329 102.394,168.215 102.394 C 167.932 102.394,158.901 98.171,157.201 97.244 C 155.427 96.276,154.889 96.284,156.481 97.255 M380.536 98.685 C 378.924 100.598,378.759 100.921,379.400 100.921 C 379.926 100.921,380.847 99.977,380.847 99.439 C 380.847 99.202,381.190 98.527,381.609 97.939 C 382.784 96.289,382.235 96.671,380.536 98.685 M140.331 101.618 C 140.331 101.798,139.570 102.793,138.640 103.828 C 136.635 106.058,136.842 106.377,138.885 104.207 C 140.178 102.835,141.054 101.289,140.540 101.289 C 140.426 101.289,140.331 101.437,140.331 101.618 M376.045 103.149 C 375.344 103.766,375.103 104.113,375.511 103.920 C 376.208 103.588,377.835 102.026,377.483 102.026 C 377.394 102.026,376.746 102.531,376.045 103.149 M282.873 103.683 C 281.203 104.070,281.058 104.160,282.044 104.194 C 283.642 104.250,283.559 104.878,281.860 105.585 C 281.100 105.901,280.396 106.276,280.295 106.417 C 280.193 106.558,278.992 107.293,277.624 108.051 C 276.257 108.808,275.138 109.519,275.138 109.629 C 275.138 109.740,275.843 109.426,276.703 108.931 C 277.564 108.436,279.968 107.076,282.044 105.910 C 286.864 103.203,287.046 102.716,282.873 103.683 M278.269 104.604 C 277.276 104.857,277.258 104.886,278.085 104.892 C 278.591 104.896,279.420 104.766,279.926 104.604 C 281.164 104.208,279.827 104.208,278.269 104.604 M226.892 104.888 C 226.885 105.673,229.476 109.392,230.031 109.392 C 230.196 109.392,229.983 109.019,229.558 108.564 C 229.132 108.108,228.359 106.989,227.840 106.077 C 227.321 105.166,226.895 104.630,226.892 104.888 M271.639 105.886 L 269.429 106.351 271.087 106.382 C 271.998 106.399,273.241 106.185,273.849 105.906 C 275.209 105.284,274.531 105.277,271.639 105.886 M135.538 106.463 C 135.034 106.849,134.788 107.164,134.991 107.162 C 135.478 107.158,136.824 106.130,136.616 105.922 C 136.526 105.833,136.041 106.076,135.538 106.463 M370.301 106.765 C 366.786 108.703,365.009 110.127,365.009 111.006 C 365.009 111.209,365.216 111.122,365.470 110.813 C 366.342 109.748,369.305 107.565,370.629 107.012 C 371.360 106.706,372.061 106.289,372.188 106.083 C 372.510 105.562,372.429 105.591,370.301 106.765 M132.965 107.735 C 132.256 108.008,131.262 108.257,130.755 108.288 C 130.249 108.320,130.054 108.433,130.323 108.541 C 130.901 108.772,134.003 107.957,134.285 107.500 C 134.518 107.123,134.584 107.111,132.965 107.735 M182.233 107.811 C 182.691 107.899,183.354 107.896,183.706 107.804 C 184.058 107.712,183.683 107.639,182.873 107.644 C 182.063 107.648,181.774 107.723,182.233 107.811 M255.739 108.799 C 254.691 109.024,253.738 109.305,253.620 109.423 C 253.308 109.737,257.521 109.118,258.583 108.694 L 259.484 108.334 258.564 108.361 C 258.057 108.377,256.786 108.573,255.739 108.799 M128.717 109.669 C 128.859 110.226,129.061 111.936,129.165 113.468 C 129.335 115.984,129.164 117.274,128.362 119.521 C 128.210 119.948,128.432 119.793,128.890 119.153 C 129.869 117.785,129.935 108.656,128.965 108.656 C 128.596 108.656,128.529 108.930,128.717 109.669 M230.571 109.553 C 230.571 111.058,238.673 112.536,242.173 111.670 C 243.390 111.369,243.153 111.340,240.814 111.506 C 237.622 111.732,234.071 111.163,231.961 110.087 C 231.197 109.696,230.571 109.457,230.571 109.553 M250.829 109.761 C 249.570 110.026,249.566 110.032,250.645 110.055 C 251.252 110.067,252.081 109.935,252.486 109.761 C 253.372 109.380,252.637 109.380,250.829 109.761 M273.573 110.340 C 272.196 111.087,272.280 111.398,273.665 110.681 C 274.273 110.367,274.770 110.031,274.770 109.935 C 274.770 109.698,274.730 109.712,273.573 110.340 M245.856 110.698 L 243.646 111.186 245.601 110.988 C 246.676 110.880,248.002 110.656,248.548 110.491 C 250.155 110.007,248.362 110.144,245.856 110.698 M268.977 112.722 C 267.918 113.281,266.592 114.095,266.030 114.531 C 265.469 114.967,266.335 114.626,267.956 113.773 C 269.576 112.920,271.060 112.083,271.252 111.912 C 271.892 111.345,270.952 111.680,268.977 112.722 M364.448 112.403 C 363.596 115.207,360.159 123.194,357.631 128.245 C 356.016 131.474,354.850 134.019,355.040 133.901 C 355.231 133.783,356.492 131.494,357.843 128.814 C 359.194 126.134,360.436 123.692,360.602 123.389 C 361.234 122.238,362.394 119.453,362.978 117.689 C 363.311 116.681,363.722 115.686,363.892 115.479 C 364.304 114.974,365.104 111.943,364.883 111.721 C 364.787 111.625,364.591 111.932,364.448 112.403 M261.399 116.920 C 258.716 118.387,257.351 119.337,257.926 119.337 C 258.237 119.337,264.825 115.593,264.825 115.416 C 264.825 115.121,264.134 115.424,261.399 116.920 M59.891 118.752 C 60.015 119.074,60.248 119.337,60.411 119.337 C 60.848 119.337,64.871 122.637,65.896 123.836 C 66.384 124.407,67.379 125.241,68.106 125.690 C 70.172 126.963,72.560 129.111,72.560 129.695 C 72.560 129.845,72.890 130.073,73.293 130.201 C 73.696 130.329,74.649 130.984,75.411 131.655 C 76.172 132.327,78.702 134.496,81.031 136.476 C 83.361 138.455,85.350 140.178,85.451 140.305 C 85.552 140.431,86.340 141.083,87.201 141.753 C 90.216 144.100,88.724 142.619,84.070 138.645 C 81.487 136.439,76.787 132.394,73.624 129.656 C 63.331 120.743,59.483 117.687,59.891 118.752 M254.456 120.919 C 252.905 121.771,251.248 122.767,250.772 123.134 C 250.009 123.722,250.059 123.717,251.197 123.097 C 256.187 120.380,257.459 119.649,257.459 119.503 C 257.459 119.264,257.533 119.229,254.456 120.919 M126.692 122.114 C 124.473 125.076,119.745 127.348,115.513 127.486 C 112.985 127.569,112.948 127.283,115.930 130.711 C 124.821 140.932,127.242 143.531,125.749 141.252 C 125.417 140.746,125.023 140.331,124.874 140.331 C 124.724 140.331,123.791 139.296,122.800 138.029 C 121.808 136.763,119.701 134.329,118.117 132.619 C 113.734 127.888,113.702 128.252,118.570 127.468 C 122.013 126.913,129.226 121.737,128.110 120.621 C 128.016 120.527,127.378 121.199,126.692 122.114 M301.163 122.189 C 300.182 122.735,299.561 123.242,299.784 123.317 C 300.007 123.391,300.090 123.611,299.970 123.806 C 299.830 124.032,299.591 124.028,299.310 123.796 C 299.019 123.554,298.688 123.559,298.330 123.813 C 297.885 124.128,297.902 124.159,298.430 123.989 C 300.324 123.381,293.316 131.047,284.817 138.881 C 284.254 139.399,282.968 140.725,281.958 141.827 C 280.949 142.929,279.604 144.251,278.969 144.764 C 278.335 145.277,277.148 146.469,276.331 147.412 C 275.515 148.355,274.747 149.026,274.625 148.903 C 274.502 148.781,274.401 148.951,274.401 149.281 C 274.401 149.612,274.099 150.044,273.729 150.242 C 273.359 150.440,271.991 151.706,270.690 153.056 C 266.570 157.330,265.864 158.011,265.555 158.011 C 265.389 158.011,264.874 158.633,264.410 159.392 C 263.947 160.152,263.431 160.830,263.264 160.900 C 262.936 161.037,261.140 164.432,261.145 164.905 C 261.147 165.064,261.664 164.282,262.295 163.168 C 263.129 161.693,268.865 155.703,283.367 141.160 C 294.326 130.170,303.215 121.183,303.120 121.188 C 303.025 121.193,302.144 121.643,301.163 122.189 M248.380 124.325 C 247.168 124.856,244.300 126.703,244.687 126.703 C 245.010 126.703,249.724 124.086,249.724 123.907 C 249.724 123.726,249.805 123.701,248.380 124.325 M292.722 126.854 C 290.138 128.328,287.900 129.666,287.750 129.827 C 287.507 130.087,288.774 129.440,294.659 126.299 C 296.079 125.541,298.074 124.075,297.583 124.150 C 297.494 124.164,295.307 125.380,292.722 126.854 M241.004 128.322 C 240.361 128.557,239.520 129.034,239.134 129.383 C 238.748 129.733,238.314 130.018,238.170 130.018 C 237.873 130.018,235.880 131.394,234.967 132.228 C 234.035 133.080,232.408 136.077,232.450 136.865 C 232.473 137.289,232.645 137.077,232.884 136.330 C 233.514 134.358,236.639 131.249,239.652 129.595 C 241.140 128.778,242.357 128.042,242.357 127.959 C 242.357 127.876,242.316 127.828,242.265 127.852 C 242.215 127.877,241.647 128.088,241.004 128.322 M283.978 131.729 C 279.959 133.904,279.177 134.438,280.007 134.438 C 280.344 134.438,280.719 134.278,280.840 134.081 C 280.962 133.885,282.463 132.960,284.177 132.026 C 285.891 131.091,287.293 130.258,287.293 130.173 C 287.293 129.935,287.301 129.931,283.978 131.729 M276.161 136.059 C 275.406 136.508,274.661 137.007,274.503 137.168 C 273.986 137.700,277.151 136.258,277.703 135.710 C 278.472 134.947,277.761 135.108,276.161 136.059 M353.097 136.795 C 351.593 139.091,347.680 146.961,348.043 146.961 C 348.268 146.961,348.607 146.557,348.795 146.063 C 349.596 143.955,352.271 138.758,353.117 137.665 C 353.522 137.142,354.006 135.912,353.806 135.912 C 353.734 135.912,353.415 136.309,353.097 136.795 M319.735 140.516 C 314.821 144.988,313.931 145.856,314.257 145.856 C 314.389 145.856,316.373 144.108,318.667 141.972 C 321.514 139.320,323.042 138.141,323.485 138.256 C 323.867 138.354,324.285 138.143,324.498 137.744 C 325.639 135.612,324.209 136.445,319.735 140.516 M266.771 141.331 C 265.511 142.077,264.531 142.739,264.594 142.801 C 264.765 142.973,268.248 141.085,268.863 140.487 C 269.694 139.681,269.258 139.856,266.771 141.331 M322.057 141.344 C 321.391 142.336,320.383 144.815,320.570 145.002 C 320.621 145.054,321.193 144.024,321.839 142.714 C 323.089 140.178,323.167 139.691,322.057 141.344 M131.186 148.066 C 133.918 151.206,136.597 154.435,137.138 155.242 C 137.679 156.049,138.122 156.527,138.122 156.305 C 138.122 156.082,137.790 155.479,137.385 154.964 C 136.980 154.449,136.648 153.922,136.648 153.793 C 136.648 153.563,134.871 151.510,132.873 149.432 C 132.316 148.852,131.859 148.266,131.857 148.130 C 131.855 147.994,130.586 146.639,129.036 145.120 C 126.770 142.899,127.191 143.476,131.186 148.066 M231.973 142.735 C 231.155 143.553,235.388 150.131,237.234 150.909 C 237.956 151.214,237.719 150.843,236.262 149.385 C 234.426 147.550,232.938 145.198,232.441 143.347 C 232.315 142.879,232.105 142.604,231.973 142.735 M262.891 143.489 C 262.334 143.791,261.878 144.116,261.878 144.211 C 261.878 144.596,262.584 144.341,263.403 143.659 C 264.439 142.795,264.272 142.740,262.891 143.489 M90.090 144.227 C 90.679 144.749,91.533 145.431,91.989 145.742 C 92.445 146.054,92.818 146.539,92.818 146.820 C 92.818 147.100,92.981 147.330,93.180 147.330 C 93.379 147.330,94.000 147.744,94.561 148.250 C 95.121 148.755,96.657 150.022,97.974 151.064 C 101.611 153.942,103.499 155.667,103.499 156.111 C 103.499 156.331,103.872 156.706,104.328 156.943 C 105.674 157.642,110.198 161.380,109.972 161.606 C 109.857 161.720,110.633 162.398,111.696 163.112 C 113.519 164.338,115.907 166.374,117.701 168.232 C 118.141 168.688,118.608 169.061,118.738 169.061 C 118.869 169.061,120.176 170.028,121.643 171.211 C 123.109 172.393,124.873 173.553,125.561 173.789 C 127.699 174.520,127.719 174.254,125.601 173.268 C 124.037 172.541,119.130 168.945,117.864 167.599 C 117.762 167.491,116.521 166.409,115.105 165.193 C 113.689 163.978,112.115 162.625,111.606 162.188 C 99.074 151.404,89.478 143.278,89.277 143.278 C 89.136 143.278,89.501 143.705,90.090 144.227 M259.208 145.513 C 258.448 145.914,257.827 146.313,257.827 146.398 C 257.827 146.721,260.012 145.778,260.429 145.275 C 260.982 144.609,260.885 144.628,259.208 145.513 M311.900 147.522 C 310.949 148.429,310.384 149.171,310.644 149.171 C 311.081 149.171,312.920 147.378,313.573 146.317 C 314.040 145.557,313.713 145.792,311.900 147.522 M255.617 147.578 C 254.705 148.103,252.468 149.350,250.645 150.349 C 248.821 151.348,247.744 152.052,248.250 151.913 C 248.757 151.774,250.554 150.852,252.245 149.863 C 253.935 148.875,255.427 148.063,255.559 148.058 C 255.692 148.054,256.215 147.726,256.722 147.330 C 257.971 146.352,257.602 146.436,255.617 147.578 M345.233 152.346 C 341.563 160.744,339.836 165.131,340.317 164.834 C 340.516 164.711,340.877 163.952,341.118 163.148 C 341.359 162.344,341.777 161.501,342.049 161.276 C 342.320 161.052,342.541 160.641,342.541 160.364 C 342.541 159.723,344.857 154.071,346.278 151.243 C 346.876 150.052,347.316 148.829,347.256 148.524 C 347.195 148.219,346.285 149.939,345.233 152.346 M318.469 151.518 C 317.797 154.191,318.321 160.088,319.547 163.648 C 320.421 166.185,320.479 165.636,319.672 162.476 C 318.739 158.821,318.448 154.651,318.925 151.771 C 319.441 148.662,319.217 148.537,318.469 151.518 M307.904 151.114 C 306.984 151.970,305.409 153.406,304.405 154.305 C 303.400 155.204,301.661 156.779,300.541 157.804 C 299.420 158.830,297.846 160.250,297.042 160.962 C 289.847 167.328,285.820 170.977,285.820 171.131 C 285.820 171.476,286.731 170.751,287.610 169.706 C 288.094 169.131,288.563 168.735,288.653 168.825 C 288.743 168.915,289.490 168.259,290.312 167.367 C 291.134 166.476,291.962 165.746,292.153 165.746 C 292.343 165.746,293.046 165.207,293.715 164.549 C 294.384 163.890,295.740 162.633,296.729 161.755 C 297.718 160.877,299.282 159.468,300.204 158.624 C 302.413 156.604,307.401 152.119,309.024 150.693 C 309.733 150.071,310.147 149.560,309.945 149.559 C 309.742 149.558,308.824 150.257,307.904 151.114 M238.674 151.593 C 238.674 152.125,241.476 152.848,243.358 152.802 L 245.488 152.750 243.094 152.483 C 241.777 152.337,240.244 152.033,239.687 151.808 C 239.130 151.583,238.674 151.487,238.674 151.593 M139.010 159.131 C 139.433 160.339,139.838 161.148,139.911 160.931 C 140.064 160.471,138.934 157.365,138.521 157.109 C 138.367 157.014,138.587 157.924,139.010 159.131 M140.056 163.720 C 140.060 164.530,140.136 164.819,140.224 164.360 C 140.312 163.902,140.308 163.239,140.216 162.887 C 140.124 162.535,140.052 162.910,140.056 163.720 M320.651 166.483 C 321.126 168.250,321.846 169.622,322.890 170.744 C 323.468 171.366,324.559 172.564,325.314 173.406 C 326.068 174.248,327.290 175.189,328.029 175.498 C 330.052 176.343,330.424 176.162,328.588 175.225 C 326.582 174.202,323.161 170.520,321.589 167.693 C 320.938 166.521,320.516 165.976,320.651 166.483 M260.460 168.508 C 260.458 169.724,260.591 171.050,260.755 171.455 C 260.928 171.883,260.982 171.112,260.883 169.613 C 260.661 166.245,260.464 165.731,260.460 168.508 M338.552 169.049 C 338.136 170.280,337.948 171.194,338.133 171.079 C 338.506 170.849,339.677 167.179,339.450 166.952 C 339.372 166.874,338.968 167.817,338.552 169.049 M138.706 168.369 C 136.637 171.872,133.706 173.858,130.056 174.232 C 127.685 174.475,127.671 174.482,129.492 174.533 C 133.176 174.636,138.044 171.617,139.232 168.494 C 139.766 167.088,139.500 167.025,138.706 168.369 M281.943 174.441 C 280.210 175.983,277.929 177.720,276.874 178.302 C 274.375 179.680,274.917 179.683,277.635 178.307 C 279.421 177.402,286.083 171.639,285.342 171.639 C 285.205 171.639,283.675 172.900,281.943 174.441 M261.142 172.876 C 261.142 174.277,266.268 178.889,268.195 179.223 C 269.292 179.412,269.225 179.337,267.587 178.539 C 265.508 177.525,262.941 175.180,262.073 173.500 C 261.445 172.286,261.142 172.083,261.142 172.876 M336.707 174.008 C 336.444 174.738,335.791 175.563,335.243 175.861 C 334.699 176.156,334.389 176.404,334.555 176.413 C 335.635 176.466,337.631 174.035,337.307 173.061 C 337.239 172.858,336.969 173.284,336.707 174.008 M331.772 176.688 C 332.230 176.776,332.893 176.773,333.246 176.680 C 333.598 176.588,333.223 176.516,332.413 176.520 C 331.602 176.524,331.314 176.600,331.772 176.688 M195.672 187.741 C 196.229 187.825,197.141 187.825,197.698 187.741 C 198.255 187.656,197.799 187.587,196.685 187.587 C 195.571 187.587,195.115 187.656,195.672 187.741 M199.975 188.390 C 200.670 188.709,201.498 189.164,201.816 189.399 C 202.134 189.635,202.063 189.475,201.657 189.044 C 201.252 188.613,200.424 188.159,199.816 188.034 C 198.733 187.813,198.737 187.821,199.975 188.390 M191.547 188.878 C 189.760 190.115,186.372 194.251,186.372 195.193 C 186.372 195.433,186.176 195.991,185.937 196.433 C 185.698 196.876,185.448 197.735,185.382 198.343 C 185.316 198.950,185.097 200.348,184.896 201.449 C 184.695 202.550,184.550 203.958,184.573 204.580 C 184.596 205.201,184.913 203.969,185.276 201.842 C 186.418 195.158,188.915 190.786,192.818 188.641 C 193.317 188.366,193.377 188.239,193.002 188.244 C 192.698 188.249,192.043 188.534,191.547 188.878 M204.031 191.590 C 206.697 195.112,207.324 199.509,206.045 205.698 C 205.309 209.253,205.594 209.738,206.425 206.348 C 207.343 202.602,207.315 196.557,206.371 194.658 C 205.103 192.106,204.352 190.990,203.434 190.298 C 202.798 189.818,202.968 190.187,204.031 191.590 M155.617 190.437 C 151.226 190.828,144.958 197.119,145.960 200.128 C 146.024 200.319,146.294 199.747,146.560 198.856 C 148.766 191.484,157.790 188.352,162.587 193.295 C 164.389 195.151,165.538 197.240,166.641 200.668 C 167.143 202.225,167.561 203.213,167.570 202.862 C 167.598 201.822,165.763 196.697,164.847 195.257 C 162.663 191.826,159.362 190.102,155.617 190.437 M145.598 203.683 C 145.598 204.797,145.667 205.253,145.752 204.696 C 145.836 204.139,145.836 203.227,145.752 202.670 C 145.667 202.113,145.598 202.569,145.598 203.683 M145.942 206.998 C 145.942 207.707,146.018 207.997,146.110 207.643 C 146.203 207.288,146.203 206.708,146.110 206.354 C 146.018 205.999,145.942 206.289,145.942 206.998 M184.041 207.326 C 183.905 208.007,183.812 208.916,183.834 209.346 C 183.856 209.777,184.021 209.383,184.201 208.471 C 184.380 207.560,184.473 206.651,184.408 206.451 C 184.342 206.252,184.177 206.646,184.041 207.326 M146.270 208.955 C 146.227 209.592,146.939 214.968,147.694 219.705 C 147.887 220.921,148.240 223.204,148.476 224.779 C 148.713 226.354,148.981 227.569,149.072 227.478 C 149.163 227.387,148.804 224.358,148.275 220.746 C 147.029 212.254,146.326 208.119,146.270 208.955 M169.119 213.076 C 169.110 213.481,169.240 214.475,169.408 215.285 L 169.713 216.759 169.718 215.470 C 169.721 214.761,169.591 213.766,169.429 213.260 C 169.191 212.515,169.131 212.480,169.119 213.076 M203.733 218.232 C 203.700 218.637,203.581 219.383,203.469 219.890 C 203.292 220.684,203.321 220.721,203.681 220.156 C 203.911 219.797,204.030 219.051,203.946 218.499 C 203.847 217.845,203.773 217.752,203.733 218.232 M170.184 219.724 C 170.193 220.119,170.603 222.514,171.094 225.046 C 171.996 229.696,172.048 229.088,171.265 223.020 C 170.885 220.074,170.135 217.788,170.184 219.724 M181.463 223.164 C 181.327 223.845,181.234 224.754,181.256 225.184 C 181.278 225.615,181.443 225.221,181.622 224.309 C 181.802 223.398,181.895 222.489,181.829 222.289 C 181.764 222.090,181.599 222.484,181.463 223.164 M201.333 230.701 C 200.554 234.647,199.995 238.096,200.089 238.367 C 200.183 238.637,200.382 238.112,200.532 237.201 C 200.682 236.289,201.298 233.008,201.900 229.909 C 202.503 226.810,202.940 224.107,202.872 223.901 C 202.803 223.696,202.111 226.756,201.333 230.701 M180.933 227.256 C 180.933 227.965,181.008 228.255,181.101 227.901 C 181.194 227.546,181.194 226.966,181.101 226.611 C 181.008 226.257,180.933 226.547,180.933 227.256 M149.625 231.676 C 149.625 232.385,149.701 232.675,149.793 232.320 C 149.886 231.966,149.886 231.386,149.793 231.031 C 149.701 230.677,149.625 230.967,149.625 231.676 M172.422 232.597 C 172.421 232.799,172.657 234.042,172.945 235.359 C 173.460 237.718,173.465 237.725,173.277 235.816 C 173.112 234.146,172.424 231.553,172.422 232.597 M150.179 235.727 C 150.295 237.247,150.515 238.904,150.669 239.411 L 150.950 240.331 150.958 239.411 C 150.963 238.904,150.742 237.247,150.468 235.727 L 149.970 232.965 150.179 235.727 M179.091 239.411 C 179.091 240.120,179.167 240.410,179.259 240.055 C 179.352 239.701,179.352 239.121,179.259 238.766 C 179.167 238.412,179.091 238.702,179.091 239.411 M199.484 240.625 C 199.110 242.758,199.245 242.952,200.442 242.010 C 207.740 236.269,220.705 241.814,221.952 251.210 C 222.183 252.953,222.234 253.019,223.159 252.780 C 223.690 252.643,225.238 252.528,226.597 252.525 C 227.956 252.521,228.985 252.435,228.883 252.333 C 228.780 252.230,227.337 252.127,225.676 252.103 L 222.656 252.060 222.236 250.168 C 221.830 248.341,220.415 245.513,219.395 244.494 C 219.123 244.222,218.714 243.650,218.485 243.222 C 216.588 239.677,204.380 237.980,201.338 240.838 C 200.208 241.899,200.064 241.839,199.919 240.239 L 199.793 238.858 199.484 240.625 M174.087 241.805 C 174.211 242.818,174.373 243.715,174.449 243.800 C 174.737 244.123,174.517 241.400,174.199 240.700 C 173.973 240.204,173.937 240.565,174.087 241.805 M177.932 246.109 C 176.884 252.973,176.476 253.777,175.880 250.159 C 175.735 249.285,175.533 248.653,175.430 248.756 C 175.253 248.933,176.343 256.024,176.584 256.265 C 176.647 256.327,177.148 253.541,177.698 250.074 C 178.248 246.606,178.619 243.689,178.521 243.592 C 178.423 243.494,178.158 244.627,177.932 246.109 M151.786 246.808 C 151.806 247.500,151.961 248.481,152.130 248.987 C 152.329 249.582,152.363 249.190,152.228 247.882 C 151.988 245.565,151.732 244.942,151.786 246.808 M152.523 251.426 C 152.503 252.058,152.830 254.544,153.251 256.950 C 153.671 259.357,154.153 262.403,154.322 263.720 C 154.599 265.887,155.711 270.321,155.753 269.429 C 155.762 269.227,155.048 264.834,154.165 259.669 C 153.282 254.503,152.543 250.793,152.523 251.426 M230.387 253.093 C 238.445 256.227,241.637 263.436,238.729 271.928 L 237.621 275.164 238.322 278.558 C 238.853 281.129,238.962 281.416,238.772 279.742 C 238.326 275.825,238.490 273.930,239.553 270.718 C 242.017 263.266,237.206 253.829,230.433 252.833 L 229.282 252.663 230.387 253.093 M155.865 271.271 C 155.853 271.878,156.151 273.702,156.527 275.322 C 157.416 279.156,157.446 277.770,156.567 273.481 C 156.193 271.657,155.877 270.663,155.865 271.271 M157.292 281.169 C 157.109 281.650,156.326 282.423,155.552 282.887 C 152.837 284.514,151.289 286.608,151.392 288.514 C 151.495 290.404,151.443 290.534,150.092 291.763 C 149.383 292.408,148.804 293.117,148.806 293.337 C 148.808 293.558,149.540 292.993,150.434 292.081 C 151.961 290.523,152.046 290.329,151.852 288.845 C 151.610 286.995,152.007 286.461,155.676 283.697 C 157.301 282.473,157.995 281.705,158.002 281.123 C 158.014 280.048,157.711 280.068,157.292 281.169 M239.496 285.083 C 239.496 285.792,239.572 286.082,239.665 285.727 C 239.757 285.373,239.757 284.793,239.665 284.438 C 239.572 284.084,239.496 284.374,239.496 285.083 M239.872 288.214 C 239.876 289.024,239.951 289.312,240.040 288.854 C 240.128 288.396,240.124 287.733,240.032 287.381 C 239.940 287.028,239.868 287.403,239.872 288.214 M240.253 293.002 C 240.255 294.015,240.327 294.385,240.412 293.826 C 240.496 293.266,240.494 292.437,240.407 291.984 C 240.319 291.531,240.250 291.989,240.253 293.002 M147.785 294.823 C 147.148 295.555,146.072 298.964,146.674 298.343 C 146.909 298.100,148.791 293.923,148.665 293.923 C 148.611 293.923,148.215 294.328,147.785 294.823 M145.588 303.499 C 145.588 304.411,145.660 304.784,145.748 304.328 C 145.836 303.872,145.836 303.126,145.748 302.670 C 145.660 302.215,145.588 302.587,145.588 303.499 M240.265 310.866 C 240.265 312.182,240.332 312.721,240.414 312.063 C 240.495 311.404,240.495 310.327,240.414 309.669 C 240.332 309.010,240.265 309.549,240.265 310.866 M145.588 311.971 C 145.588 312.882,145.660 313.255,145.748 312.799 C 145.836 312.343,145.836 311.598,145.748 311.142 C 145.660 310.686,145.588 311.059,145.588 311.971 M145.864 315.175 C 145.850 316.648,148.137 323.020,148.679 323.020 C 149.104 323.020,149.095 322.837,148.629 321.935 C 148.320 321.338,147.573 319.390,146.969 317.607 C 146.366 315.824,145.868 314.729,145.864 315.175 M239.461 317.680 C 239.428 318.085,239.309 318.831,239.196 319.337 C 239.020 320.132,239.049 320.168,239.409 319.604 C 239.638 319.244,239.757 318.498,239.674 317.946 C 239.574 317.292,239.500 317.199,239.461 317.680 M238.455 321.411 C 238.314 321.992,237.636 323.596,236.948 324.975 C 235.859 327.158,235.794 327.430,236.449 327.080 C 236.862 326.859,237.201 326.389,237.201 326.036 C 237.201 325.683,237.423 325.067,237.695 324.668 C 238.225 323.889,239.102 320.747,238.857 320.502 C 238.776 320.421,238.595 320.830,238.455 321.411 M149.176 323.594 C 149.171 324.042,151.543 328.065,152.307 328.905 C 154.124 330.901,155.156 332.080,155.371 332.406 C 155.507 332.612,156.114 333.195,156.720 333.702 L 157.822 334.622 157.094 333.702 C 156.694 333.195,155.886 332.284,155.298 331.676 C 153.759 330.085,151.116 326.590,150.076 324.771 C 149.583 323.909,149.178 323.380,149.176 323.594 M233.425 330.992 C 232.261 332.688,231.308 334.266,231.308 334.498 C 231.308 334.844,233.043 332.453,234.807 329.677 C 235.009 329.358,235.319 328.992,235.496 328.864 C 235.673 328.735,235.756 328.468,235.680 328.270 C 235.605 328.072,234.590 329.297,233.425 330.992 M157.685 348.088 C 157.662 348.809,157.905 349.721,158.225 350.114 C 158.800 350.819,158.804 350.818,158.544 350.092 C 158.399 349.687,158.156 348.775,158.004 348.066 L 157.727 346.777 157.685 348.088 M230.994 348.177 C 230.964 348.744,230.686 349.697,230.377 350.295 C 230.068 350.892,229.965 351.381,230.148 351.381 C 230.694 351.381,231.376 349.330,231.207 348.198 L 231.050 347.145 230.994 348.177 M159.361 352.210 C 159.706 352.970,160.187 353.591,160.428 353.591 C 160.670 353.591,161.095 353.905,161.373 354.289 C 161.651 354.673,162.541 355.094,163.352 355.225 L 164.825 355.462 162.970 354.580 C 161.949 354.095,160.579 353.052,159.923 352.263 L 158.732 350.829 159.361 352.210 M228.522 352.901 C 227.927 353.534,226.777 354.359,225.967 354.734 C 225.074 355.148,224.771 355.420,225.198 355.425 C 226.219 355.436,229.354 353.323,229.576 352.473 C 229.822 351.534,229.797 351.544,228.522 352.901 M177.993 355.709 C 185.235 355.765,197.086 355.765,204.328 355.709 C 211.570 355.653,205.645 355.607,191.160 355.607 C 176.676 355.607,170.750 355.653,177.993 355.709 M222.007 355.693 C 222.463 355.781,223.209 355.781,223.665 355.693 C 224.121 355.605,223.748 355.533,222.836 355.533 C 221.924 355.533,221.552 355.605,222.007 355.693 " stroke="none" fill="#8f876c" fill-rule="evenodd"></path></g></svg>