<?xml version="1.0" encoding="iso-8859-1"?>
<!-- Uploaded to: SVG Repo, www.svgrepo.com, Generator: SVG Repo Mixer Tools -->
<svg height="800px" width="800px" version="1.1" id="Layer_1" xmlns="http://www.w3.org/2000/svg" xmlns:xlink="http://www.w3.org/1999/xlink" 
	 viewBox="0 0 512 512" xml:space="preserve">
<g transform="translate(-1)">
	<path style="fill:#FDC794;" d="M140.636,307.2c-25.135,17.687-27.927,34.444-27.927,65.164l0,0
		c0,43.753,37.236,74.473,37.236,74.473l0,0v37.236c0,15.825,12.102,27.927,27.927,27.927h168.495
		c15.825,0,26.996-12.102,26.996-27.927v-37.236l0,0c26.996-36.305,27.927-44.684,27.927-111.709
		c0-39.098-12.102-84.713-12.102-84.713v-0.931c5.585-16.756-3.724-35.375-20.48-40.96c-16.756-5.585-35.375,3.724-40.96,20.48
		l6.516-18.618c5.585-16.756-2.793-34.444-19.549-40.029l-1.862-0.931c-16.756-5.585-34.444,2.793-40.029,19.549l-3.724,10.24
		l28.858-153.6c1.862-10.24,0.931-21.411-4.655-29.789C287.72,6.516,278.411,0,268.171,0l0,0c-17.687,0-30.72,20.48-33.513,37.236
		l-27.927,176.873L177.873,46.545c-4.655-20.48-13.964-37.236-31.651-37.236c-11.171,0-20.48,6.516-26.996,15.825
		c-5.585,8.378-6.516,18.618-5.585,28.858l26.996,178.735l12.102,64.233L140.636,307.2z"/>
	<g>
		<path style="fill:#F9A671;" d="M324.956,377.949c-4.655,0-9.309-0.931-13.964-1.862c-10.24-3.724-18.618-11.171-24.204-21.411
			c-4.655-10.24-5.585-21.411-1.862-31.651l33.513-96.815c3.724-10.24,11.171-18.618,21.411-24.204
			c10.24-4.655,21.411-5.585,31.651-1.862c10.24,3.724,18.618,11.171,24.204,21.411c5.585,10.24,5.585,21.411,1.862,31.651
			l-33.513,96.815c-3.724,10.24-11.171,18.618-21.411,24.204C337.989,376.087,331.473,377.949,324.956,377.949z M358.469,215.971
			c-3.724,0-7.447,0.931-10.24,2.793c-5.585,2.793-10.24,7.447-12.102,13.033l-33.513,96.815
			c-1.862,5.585-1.862,12.102,0.931,17.687c2.793,5.585,7.447,10.24,13.033,12.102l0,0c5.585,1.862,12.102,1.862,17.687-0.931
			c5.585-2.793,10.24-7.447,12.102-13.033l33.513-96.815c1.862-5.585,1.862-12.102-0.931-17.687
			c-2.793-5.585-7.447-10.24-13.033-12.102C363.124,215.971,361.262,215.971,358.469,215.971z"/>
		<path style="fill:#F9A671;" d="M179.735,375.156c-3.724,0-7.447-1.862-8.378-5.585c-1.862-4.655,0-10.24,4.655-12.102
			c22.342-9.309,81.92-59.578,94.022-89.367c2.793-8.378,0.931-18.618-4.655-23.273c-7.447-5.585-19.549-3.724-34.444,6.516
			c-14.895,10.24-53.062,39.098-84.713,63.302c-3.724,2.793-10.24,2.793-13.033-1.862c-2.793-3.724-2.793-10.24,1.862-13.033
			c28.858-22.342,68.887-53.062,85.644-64.233c30.72-20.48,49.338-11.171,55.855-5.585c12.102,10.24,16.756,27.927,10.24,44.684
			c-13.964,35.375-78.196,88.436-103.331,99.607C181.596,375.156,180.665,375.156,179.735,375.156z"/>
		<path style="fill:#F9A671;" d="M267.24,348.16c-4.655,0-9.309-0.931-13.033-1.862l-1.862-0.931
			c-6.516-2.793-13.033-6.516-17.687-13.033c-2.793-3.724-2.793-8.378,0-12.102c17.687-21.411,30.72-40.96,35.375-52.131
			c4.655-11.171-2.793-28.858-13.964-33.513c-4.655-1.862-6.516-6.516-4.655-11.171l13.033-37.236
			c7.447-21.411,30.72-32.582,52.131-25.135l1.862,0.931c10.24,3.724,18.618,11.171,23.273,20.48
			c4.655,10.24,5.585,21.411,1.862,31.651l-37.236,107.055C299.822,336.989,283.996,348.16,267.24,348.16z M254.207,325.818
			c0.931,0.931,2.793,1.862,3.724,1.862l1.862,0.931c12.102,3.724,24.204-1.862,28.858-13.964l37.236-107.055
			c1.862-5.585,1.862-12.102-0.931-16.756c-2.793-5.585-7.447-9.309-13.033-11.171l0,0l-1.862-0.931
			c-12.102-3.724-24.204,1.862-28.858,13.964l-10.24,29.789c14.895,12.102,23.273,35.375,15.825,53.062
			C282.135,287.651,270.033,305.338,254.207,325.818z"/>
	</g>
</g>
</svg>